<?xml version="1.0" encoding="utf-8"?>
<!-- Generator: Adobe Illustrator 16.0.0, SVG Export Plug-In . SVG Version: 6.00 Build 0)  -->
<!DOCTYPE svg PUBLIC "-//W3C//DTD SVG 1.1//EN" "http://www.w3.org/Graphics/SVG/1.1/DTD/svg11.dtd">
<svg version="1.1" id="Calque_1" xmlns="http://www.w3.org/2000/svg" xmlns:xlink="http://www.w3.org/1999/xlink" x="0px" y="0px"
	 width="30px" height="30px" viewBox="0 0 30 30" enable-background="new 0 0 30 30" xml:space="preserve">
<path fill="#878787" d="M16.089,11.325c1.009,0.632,1.716,1.701,1.845,2.942c0.409,0.191,0.866,0.302,1.35,0.302
	c1.766,0,3.197-1.432,3.197-3.196c0-1.766-1.433-3.196-3.197-3.196C17.534,8.177,16.116,9.583,16.089,11.325z M13.996,17.869
	c1.764,0,3.195-1.434,3.195-3.196c0-1.764-1.432-3.196-3.195-3.196c-1.766,0-3.197,1.432-3.197,3.196
	C10.798,16.438,12.23,17.869,13.996,17.869z M15.351,18.087h-2.712c-2.256,0-4.092,1.837-4.092,4.093v3.317l0.008,0.051l0.229,0.072
	c2.153,0.672,4.024,0.896,5.564,0.896c3.005,0,4.75-0.855,4.859-0.91l0.214-0.107h0.021V22.18
	C19.441,19.924,17.607,18.087,15.351,18.087z M20.641,14.787h-2.691c-0.03,1.078-0.489,2.047-1.217,2.745
	c2.006,0.597,3.474,2.456,3.474,4.653v1.021c2.655-0.098,4.188-0.852,4.289-0.9l0.213-0.109h0.022v-3.316
	C24.73,16.624,22.896,14.787,20.641,14.787z M21.357,8.109c1.009,0.631,1.715,1.701,1.844,2.941
	c0.412,0.192,0.867,0.303,1.352,0.303c1.766,0,3.195-1.431,3.195-3.196c0-1.766-1.432-3.196-3.195-3.196
	C22.805,4.961,21.385,6.367,21.357,8.109z M25.908,11.572h-2.69c-0.03,1.076-0.489,2.046-1.216,2.744
	c2.005,0.596,3.473,2.456,3.473,4.653v1.021c2.656-0.098,4.188-0.85,4.289-0.9l0.213-0.107H30v-3.316
	C30.001,13.408,28.165,11.572,25.908,11.572z M8.387,14.57c0.625,0,1.207-0.183,1.7-0.494c0.157-1.022,0.705-1.915,1.487-2.522
	c0.003-0.061,0.009-0.12,0.009-0.18c0-1.766-1.431-3.196-3.195-3.196c-1.765,0-3.196,1.431-3.196,3.196
	C5.191,13.138,6.622,14.57,8.387,14.57z M11.258,17.531c-0.724-0.694-1.182-1.659-1.215-2.729c-0.1-0.007-0.199-0.016-0.3-0.016
	H7.031c-2.257,0-4.093,1.837-4.093,4.093v3.316l0.009,0.052l0.228,0.071c1.727,0.539,3.27,0.789,4.609,0.865v-1.002
	C7.785,19.988,9.251,18.128,11.258,17.531z"/>
</svg>
