<?xml version="1.0" encoding="utf-8"?>
<!-- Generator: Adobe Illustrator 16.0.0, SVG Export Plug-In . SVG Version: 6.00 Build 0)  -->
<!DOCTYPE svg PUBLIC "-//W3C//DTD SVG 1.1//EN" "http://www.w3.org/Graphics/SVG/1.1/DTD/svg11.dtd">
<svg version="1.1" id="Calque_1" xmlns="http://www.w3.org/2000/svg" xmlns:xlink="http://www.w3.org/1999/xlink" x="0px" y="0px"
	 width="30px" height="30px" viewBox="0 0 30 30" enable-background="new 0 0 30 30" xml:space="preserve">
<g>
	<rect x="5.004" y="10.688" fill="#878787" width="24.996" height="2.205"/>
	<path fill="#878787" d="M21.74,16.457c-1.271,0.617-5.701,2.215-5.701,2.215l-5.236-0.328c0,0,2.994-0.832,4.156-1.094
		c1.162-0.26,0.656-1.572,0.014-1.572S8.725,15.91,8.725,15.91l-3.721,1.34l0.986,6.234c0,0,0.766-1.313,1.529-1.313
		c0.768,0,7.41,0.179,8.313,0c0.902-0.178,6.398-3.938,7.057-4.377C23.545,17.359,23.014,15.84,21.74,16.457z"/>
	<polygon fill="#878787" points="0,17.92 0,26 5.701,24.934 4.275,17.168 	"/>
</g>
</svg>
