<?xml version="1.0" encoding="utf-8"?>
<!-- Generator: Adobe Illustrator 16.0.0, SVG Export Plug-In . SVG Version: 6.00 Build 0)  -->
<!DOCTYPE svg PUBLIC "-//W3C//DTD SVG 1.1//EN" "http://www.w3.org/Graphics/SVG/1.1/DTD/svg11.dtd">
<svg version="1.1" id="Calque_1" xmlns="http://www.w3.org/2000/svg" xmlns:xlink="http://www.w3.org/1999/xlink" x="0px" y="0px"
	 width="30px" height="30px" viewBox="0 0 30 30" enable-background="new 0 0 30 30" xml:space="preserve">
<g>
	<path fill="#878787" d="M3.309,23.645h1.878c0.519,0,0.939-0.42,0.939-0.938H25.85c0,0.519,0.42,0.938,0.939,0.938h1.877
		c0.52,0,0.939-0.42,0.939-0.938v-7.983c0-0.52-0.42-0.939-0.939-0.939h-1.877c-0.52,0-0.939,0.42-0.939,0.939v2.347v1.879v0.938
		H24.91h-8.453H15.52H7.066h-0.94v-0.938V17.07v-2.347c0-0.52-0.42-0.939-0.939-0.939H3.309c-0.52,0-0.939,0.42-0.939,0.939v7.983
		C2.37,23.225,2.79,23.645,3.309,23.645z"/>
	<path fill="#878787" d="M14.589,15.191c0.34,0,0.654,0.099,0.931,0.259v-4.485c0-0.52-0.421-0.939-0.939-0.939H8.005
		c-0.519,0-0.939,0.42-0.939,0.939v4.493c0.282-0.166,0.607-0.268,0.958-0.268L14.589,15.191L14.589,15.191z"/>
	<path fill="#878787" d="M15.52,17.068c0-0.518-0.417-0.938-0.936-0.938h-0.005H8.024c-0.519,0-0.958,0.423-0.958,0.938v1.879h8.454
		V17.068z"/>
	<path fill="#878787" d="M23.98,15.191c0.34,0,0.654,0.099,0.93,0.259v-4.485c0-0.52-0.422-0.939-0.939-0.939h-6.574
		c-0.52,0-0.938,0.42-0.938,0.939v4.493c0.282-0.166,0.606-0.268,0.96-0.268L23.98,15.191L23.98,15.191z"/>
	<path fill="#878787" d="M24.91,17.068c0-0.518-0.416-0.938-0.936-0.938h-0.004h-6.555c-0.52,0-0.96,0.423-0.96,0.938v1.879h8.453
		L24.91,17.068L24.91,17.068z"/>
</g>
</svg>
