<?xml version="1.0" encoding="utf-8"?>
<!-- Generator: Adobe Illustrator 16.0.0, SVG Export Plug-In . SVG Version: 6.00 Build 0)  -->
<!DOCTYPE svg PUBLIC "-//W3C//DTD SVG 1.1//EN" "http://www.w3.org/Graphics/SVG/1.1/DTD/svg11.dtd">
<svg version="1.1" id="Ebene_1" xmlns="http://www.w3.org/2000/svg" xmlns:xlink="http://www.w3.org/1999/xlink" x="0px" y="0px"
	 width="395.304px" height="43.621px" viewBox="11.669 6.221 395.304 43.621" enable-background="new 11.669 6.221 395.304 43.621"
	 xml:space="preserve">
<g>
	<g>
		<path fill="#FFFFFF" d="M110.877,49.618v-8.329h0.992v7.385h3.152v0.944L110.877,49.618L110.877,49.618z"/>
		<path fill="#FFFFFF" d="M132.38,41.287h1.005v5.184c0,0.844,0.178,1.462,0.539,1.857c0.358,0.393,0.921,0.591,1.688,0.591
			c0.766,0,1.33-0.198,1.688-0.591c0.359-0.395,0.539-1.013,0.539-1.857v-5.184h1.01v5.184c0,1.125-0.269,1.967-0.808,2.53
			c-0.537,0.562-1.35,0.841-2.429,0.841c-1.082,0-1.888-0.279-2.428-0.841c-0.537-0.562-0.807-1.404-0.807-2.53v-5.184H132.38z"/>
		<path fill="#FFFFFF" d="M156.173,49.618l2.565-4.428l-2.393-3.9h1.19l1.793,3.168l1.728-3.168h1.127l-2.365,3.991l2.662,4.337
			h-1.168l-2.057-3.592l-1.952,3.592H156.173z"/>
		<path fill="#FFFFFF" d="M179.805,41.287h1.004v5.184c0,0.844,0.178,1.462,0.539,1.857c0.359,0.393,0.923,0.591,1.69,0.591
			c0.767,0,1.329-0.198,1.69-0.591c0.361-0.395,0.538-1.013,0.538-1.857v-5.184h1.008v5.184c0,1.125-0.269,1.967-0.806,2.53
			c-0.539,0.562-1.35,0.841-2.431,0.841c-1.08,0-1.887-0.279-2.426-0.841c-0.536-0.562-0.807-1.404-0.807-2.53V41.287
			L179.805,41.287z"/>
		<path fill="#FFFFFF" d="M204.668,49.618v-8.329h1.961c0.558,0,0.967,0.027,1.229,0.092c0.258,0.063,0.487,0.171,0.684,0.321
			c0.248,0.194,0.44,0.454,0.573,0.778c0.139,0.324,0.209,0.684,0.209,1.078c0,0.686-0.193,1.202-0.573,1.557
			c-0.379,0.36-0.941,0.533-1.677,0.533h-0.178l3.186,3.972h-1.258l-3.042-3.972h-0.143v3.972L204.668,49.618L204.668,49.618z
			 M205.639,42.124v2.788h0.756c0.774,0,1.294-0.099,1.558-0.297c0.263-0.201,0.392-0.55,0.392-1.046
			c0-0.535-0.138-0.91-0.404-1.125c-0.271-0.214-0.784-0.317-1.545-0.317h-0.756V42.124L205.639,42.124z"/>
		<path fill="#FFFFFF" d="M228.964,49.618v-3.812l-2.824-4.518h1.144l2.184,3.611l2.174-3.611h1.14l-2.821,4.518v3.812H228.964z"/>
		<path fill="#FFFFFF" d="M260.591,49.618v-8.329h1.74c0.612,0,1.06,0.027,1.353,0.092c0.289,0.063,0.539,0.171,0.749,0.321
			c0.269,0.199,0.472,0.45,0.62,0.764c0.146,0.307,0.217,0.646,0.217,1.014c0,0.441-0.104,0.809-0.314,1.104
			c-0.212,0.297-0.519,0.505-0.927,0.617c0.497,0.078,0.886,0.298,1.174,0.665c0.285,0.363,0.431,0.83,0.431,1.385
			c0,0.335-0.062,0.652-0.183,0.956c-0.121,0.303-0.289,0.567-0.507,0.78c-0.238,0.232-0.526,0.394-0.872,0.49
			c-0.347,0.097-0.927,0.143-1.742,0.143h-1.738V49.618L260.591,49.618z M261.562,42.143v2.789h0.77
			c0.706,0,1.204-0.102,1.491-0.305c0.288-0.208,0.435-0.553,0.435-1.04c0-0.532-0.133-0.909-0.4-1.121
			c-0.271-0.216-0.777-0.324-1.525-0.324L261.562,42.143L261.562,42.143z M261.562,45.712v3.041h0.77
			c0.525,0,0.91-0.021,1.141-0.063c0.233-0.041,0.423-0.113,0.562-0.215c0.171-0.12,0.307-0.293,0.406-0.509
			c0.098-0.215,0.146-0.454,0.146-0.717c0-0.301-0.058-0.567-0.176-0.792c-0.122-0.226-0.289-0.4-0.513-0.524
			c-0.139-0.08-0.289-0.138-0.465-0.17c-0.171-0.034-0.443-0.054-0.81-0.054h-0.294L261.562,45.712L261.562,45.712z"/>
		<path fill="#FFFFFF" d="M279.754,41.287h1.004v5.184c0,0.844,0.18,1.462,0.534,1.857c0.359,0.393,0.925,0.591,1.691,0.591
			c0.766,0,1.328-0.198,1.688-0.591c0.36-0.395,0.54-1.013,0.54-1.857v-5.184h1.005v5.184c0,1.125-0.266,1.967-0.808,2.53
			c-0.535,0.562-1.347,0.841-2.429,0.841c-1.077,0-1.888-0.279-2.426-0.841c-0.539-0.562-0.809-1.404-0.809-2.53v-5.184H279.754z"/>
		<path fill="#FFFFFF" d="M302.918,44.989c0.547,0.231,0.952,0.536,1.229,0.922c0.275,0.385,0.412,0.838,0.412,1.363
			c0,0.767-0.242,1.383-0.729,1.853c-0.492,0.467-1.138,0.698-1.941,0.698c-0.661,0-1.206-0.167-1.654-0.502
			c-0.446-0.335-0.745-0.811-0.898-1.432l0.898-0.443c0.121,0.5,0.32,0.888,0.602,1.147c0.279,0.259,0.631,0.388,1.053,0.388
			c0.496,0,0.896-0.141,1.206-0.428c0.306-0.29,0.461-0.659,0.461-1.123c0-0.371-0.109-0.69-0.323-0.967
			c-0.216-0.273-0.54-0.506-0.97-0.693l-1.018-0.44c-0.555-0.226-0.968-0.526-1.241-0.888c-0.272-0.363-0.405-0.801-0.405-1.31
			c0-0.59,0.216-1.082,0.659-1.469c0.44-0.388,1.005-0.578,1.685-0.578c0.506,0,0.937,0.101,1.303,0.316
			c0.37,0.214,0.652,0.529,0.858,0.941l-0.819,0.525c-0.188-0.321-0.391-0.564-0.627-0.721c-0.229-0.153-0.493-0.237-0.784-0.237
			c-0.375,0-0.681,0.113-0.918,0.34c-0.236,0.228-0.355,0.521-0.355,0.873c0,0.296,0.091,0.549,0.272,0.769
			c0.185,0.217,0.468,0.408,0.848,0.572L302.918,44.989z"/>
	</g>
	<g>
		<path fill="#FFFFFF" d="M11.669,35.102V6.896h13.507c2.89,0,5.144,0.678,6.763,2.032c1.619,1.357,2.427,3.241,2.427,5.656
			c0,1.543-0.381,2.824-1.145,3.845c-0.767,1.02-1.847,1.686-3.248,1.995c1.914,0.397,3.339,1.149,4.277,2.251
			c0.936,1.106,1.407,2.59,1.407,4.451c0,2.634-0.888,4.62-2.667,5.963c-1.781,1.346-4.397,2.014-7.852,2.014L11.669,35.102
			L11.669,35.102z M21.188,13.603v3.95h1.328c0.822,0,1.447-0.172,1.878-0.513c0.429-0.338,0.645-0.829,0.645-1.473
			c0-0.645-0.215-1.131-0.645-1.467c-0.432-0.332-1.056-0.499-1.878-0.499L21.188,13.603L21.188,13.603z M21.188,23.619v4.509h1.694
			c1.016,0,1.795-0.196,2.341-0.585c0.545-0.396,0.817-0.95,0.817-1.667c0-0.731-0.272-1.29-0.817-1.679
			c-0.548-0.386-1.326-0.576-2.341-0.576L21.188,23.619L21.188,23.619z"/>
		<path fill="#FFFFFF" d="M41.752,22.193V6.896h10.134v15.376c0,1.785,0.211,3.014,0.636,3.688c0.425,0.674,1.149,1.013,2.177,1.013
			c1.014,0,1.741-0.347,2.178-1.043c0.437-0.691,0.655-1.914,0.655-3.657V6.896h10.134v15.298c0,2.003-0.133,3.653-0.396,4.952
			c-0.263,1.299-0.686,2.383-1.262,3.255c-1.132,1.759-2.671,3.108-4.624,4.045c-1.954,0.935-4.18,1.407-6.686,1.407
			c-2.517,0-4.752-0.472-6.705-1.407c-1.953-0.938-3.492-2.286-4.624-4.045c-0.566-0.859-0.975-1.932-1.232-3.216
			C41.878,25.901,41.752,24.235,41.752,22.193z"/>
		<path fill="#FFFFFF" d="M73.125,32.696l3.236-7.898c1.45,1.015,2.749,1.753,3.885,2.225c1.135,0.47,2.197,0.702,3.188,0.702
			c0.694,0,1.24-0.133,1.637-0.396c0.399-0.262,0.599-0.619,0.599-1.072c0-0.782-0.996-1.379-2.989-1.791
			c-0.642-0.142-1.142-0.252-1.5-0.33c-2.107-0.511-3.718-1.422-4.837-2.734c-1.117-1.31-1.677-2.943-1.677-4.895
			c0-3.032,1.085-5.495,3.255-7.399c2.171-1.902,5.017-2.853,8.539-2.853c1.619,0,3.21,0.213,4.777,0.636
			c1.566,0.424,3.147,1.069,4.742,1.928l-3.084,7.379c-0.977-0.72-1.956-1.269-2.939-1.647c-0.983-0.373-1.936-0.565-2.862-0.565
			c-0.707,0-1.253,0.119-1.637,0.356c-0.384,0.237-0.577,0.567-0.577,0.99c0,0.797,1.406,1.498,4.218,2.103
			c0.451,0.102,0.797,0.18,1.041,0.23c1.939,0.437,3.466,1.33,4.587,2.679c1.117,1.348,1.676,2.979,1.676,4.892
			c0,3.121-1.126,5.667-3.384,7.647c-2.253,1.98-5.186,2.967-8.794,2.967c-1.85,0-3.7-0.262-5.549-0.787
			C76.823,34.536,74.975,33.746,73.125,32.696z"/>
		<g>
			<path fill="#FFFFFF" d="M103.301,35.102V6.896h5.416c4.006,0,6.831,0.202,8.467,0.607c1.638,0.405,3.074,1.083,4.306,2.035
				c1.62,1.245,2.845,2.837,3.681,4.777c0.835,1.939,1.252,4.173,1.252,6.705c0,2.516-0.415,4.741-1.243,6.675
				c-0.829,1.932-2.058,3.523-3.689,4.769c-1.232,0.952-2.636,1.628-4.208,2.032c-1.575,0.405-4.024,0.609-7.352,0.609h-1.215
				L103.301,35.102L103.301,35.102z M106.693,31.944h2.14c3.466,0,5.869-0.15,7.206-0.454c1.335-0.299,2.447-0.817,3.332-1.549
				c1.159-0.964,2.037-2.208,2.639-3.731c0.604-1.519,0.907-3.263,0.907-5.228c0-1.978-0.296-3.715-0.896-5.21
				c-0.597-1.497-1.482-2.732-2.65-3.712c-0.885-0.746-2.013-1.273-3.38-1.588c-1.367-0.316-3.754-0.471-7.157-0.471h-2.141V31.944
				L106.693,31.944z"/>
			<path fill="#FFFFFF" d="M134.717,35.102V6.896h3.353v28.206H134.717L134.717,35.102z"/>
			<path fill="#FFFFFF" d="M157.921,19.441c1.836,0.78,3.22,1.823,4.151,3.118c0.929,1.298,1.397,2.835,1.397,4.606
				c0,2.594-0.823,4.681-2.474,6.27c-1.651,1.586-3.838,2.382-6.561,2.382c-2.221,0-4.085-0.569-5.587-1.706
				c-1.503-1.14-2.518-2.754-3.044-4.846l3.044-1.504c0.412,1.708,1.087,3.002,2.032,3.884c0.945,0.879,2.129,1.322,3.555,1.322
				c1.682,0,3.045-0.486,4.084-1.456c1.041-0.966,1.559-2.229,1.559-3.784c0-1.258-0.363-2.354-1.088-3.286
				c-0.727-0.931-1.822-1.719-3.284-2.361l-3.431-1.464c-1.873-0.782-3.271-1.792-4.187-3.025c-0.918-1.233-1.379-2.71-1.379-4.428
				c0-2.006,0.743-3.663,2.234-4.972c1.487-1.311,3.392-1.966,5.702-1.966c1.696,0,3.165,0.358,4.402,1.077
				c1.239,0.721,2.208,1.781,2.901,3.179l-2.775,1.777c-0.629-1.093-1.334-1.906-2.119-2.437c-0.781-0.532-1.669-0.799-2.659-0.799
				c-1.261,0-2.29,0.384-3.094,1.154c-0.803,0.772-1.204,1.754-1.204,2.946c0,1.006,0.309,1.872,0.927,2.603
				c0.616,0.73,1.572,1.382,2.871,1.946L157.921,19.441z"/>
			<path fill="#FFFFFF" d="M193.591,13.64c-1.349-1.466-2.787-2.546-4.314-3.248c-1.53-0.699-3.218-1.048-5.07-1.048
				c-1.486,0-2.944,0.3-4.362,0.905c-1.418,0.603-2.648,1.443-3.689,2.521c-1.077,1.121-1.888,2.369-2.427,3.748
				c-0.537,1.382-0.809,2.908-0.809,4.576c0,1.309,0.158,2.517,0.483,3.621c0.32,1.107,0.801,2.12,1.443,3.045
				c1.131,1.608,2.521,2.844,4.17,3.71c1.652,0.866,3.435,1.301,5.349,1.301c1.796,0,3.466-0.374,5.008-1.117
				c1.541-0.747,2.948-1.857,4.22-3.334v4.451c-1.4,1.016-2.906,1.784-4.519,2.302c-1.613,0.523-3.277,0.779-5,0.779
				c-1.491,0-2.939-0.22-4.354-0.664c-1.413-0.444-2.735-1.089-3.969-1.936c-2.055-1.429-3.626-3.179-4.71-5.261
				c-1.085-2.081-1.629-4.366-1.629-6.858c0-2.172,0.364-4.145,1.09-5.925c0.725-1.777,1.833-3.394,3.323-4.847
				c1.44-1.387,3.031-2.423,4.778-3.112c1.748-0.687,3.653-1.03,5.722-1.03c1.63,0,3.21,0.247,4.738,0.743
				c1.53,0.492,3.036,1.259,4.527,2.302L193.591,13.64L193.591,13.64L193.591,13.64z"/>
			<path fill="#FFFFFF" d="M230.934,21.056c0,2.019-0.37,3.92-1.117,5.705c-0.747,1.783-1.831,3.372-3.256,4.759
				c-1.43,1.388-3.072,2.457-4.926,3.206c-1.858,0.751-3.783,1.126-5.777,1.126c-1.992,0-3.911-0.375-5.753-1.126
				c-1.843-0.749-3.481-1.818-4.908-3.206c-1.44-1.403-2.535-2.993-3.289-4.777c-0.75-1.788-1.125-3.681-1.125-5.686
				c0-2.014,0.375-3.919,1.125-5.712c0.754-1.792,1.849-3.388,3.289-4.788c1.413-1.373,3.046-2.432,4.894-3.178
				c1.853-0.744,3.773-1.117,5.767-1.117c2.004,0,3.935,0.375,5.792,1.117c1.857,0.747,3.493,1.806,4.906,3.178
				c1.427,1.386,2.513,2.978,3.258,4.77C230.564,17.118,230.934,19.029,230.934,21.056z M215.857,32.696
				c1.543,0,3.014-0.294,4.406-0.878c1.395-0.581,2.651-1.434,3.772-2.55c1.104-1.105,1.947-2.357,2.525-3.758
				c0.574-1.4,0.866-2.882,0.866-4.452c0-1.579-0.295-3.082-0.879-4.507c-0.584-1.425-1.424-2.684-2.513-3.776
				c-1.108-1.104-2.358-1.944-3.747-2.522c-1.401-0.578-2.873-0.867-4.429-0.867c-1.565,0-3.052,0.29-4.456,0.867
				c-1.399,0.578-2.639,1.42-3.723,2.522c-1.105,1.12-1.948,2.384-2.526,3.797c-0.575,1.411-0.868,2.907-0.868,4.487
				c0,1.568,0.286,3.045,0.857,4.433c0.571,1.388,1.417,2.646,2.537,3.777c1.131,1.128,2.39,1.985,3.771,2.56
				C212.835,32.403,214.304,32.696,215.857,32.696z"/>
			<path fill="#FFFFFF" d="M241.944,35.102V10.097h-7.979V6.896h19.306v3.201h-7.94v25.005H241.944z"/>
			<path fill="#FFFFFF" d="M259.77,35.102V6.896h3.354v10.845h14.987V6.896h3.409v28.206h-3.409V20.94h-14.987v14.162H259.77
				L259.77,35.102z"/>
			<path fill="#FFFFFF" d="M300.497,35.102V6.896h14.875v3.063h-11.52v8.093h11.52v3.122h-11.52v10.81h11.52v3.119H300.497z"/>
			<path fill="#FFFFFF" d="M353.009,37.821h-4.142l-3.757-4.03c-1.113,0.656-2.338,1.145-3.663,1.465
				c-1.329,0.321-2.776,0.483-4.347,0.483c-1.589,0-3.107-0.236-4.552-0.702c-1.446-0.47-2.781-1.161-3.996-2.072
				c-1.979-1.45-3.479-3.195-4.492-5.23c-1.024-2.035-1.533-4.276-1.533-6.714c0-1.967,0.38-3.845,1.136-5.644
				c0.761-1.799,1.847-3.405,3.268-4.82c1.442-1.385,3.075-2.45,4.89-3.187c1.829-0.739,3.748-1.108,5.764-1.108
				c2.001,0,3.881,0.329,5.638,0.981c1.761,0.656,3.35,1.632,4.775,2.931c1.52,1.373,2.673,2.994,3.476,4.864
				c0.807,1.87,1.206,3.876,1.206,6.02c0,2.264-0.432,4.328-1.29,6.197c-0.865,1.868-2.112,3.457-3.76,4.767L353.009,37.821z
				 M341.123,25.045l4.182,4.491c1.206-0.952,2.133-2.15,2.78-3.603c0.65-1.45,0.977-3.036,0.977-4.758
				c0-1.157-0.137-2.257-0.407-3.305c-0.271-1.045-0.658-1.992-1.173-2.839c-1.066-1.762-2.459-3.122-4.176-4.084
				c-1.718-0.967-3.627-1.444-5.719-1.444c-1.55,0-3.03,0.288-4.438,0.865c-1.407,0.579-2.65,1.41-3.729,2.488
				c-1.076,1.078-1.905,2.321-2.482,3.729c-0.574,1.406-0.862,2.885-0.862,4.439c0,1.991,0.397,3.784,1.202,5.374
				c0.801,1.595,2.001,2.97,3.61,4.126c0.91,0.667,1.912,1.173,3,1.513c1.092,0.34,2.231,0.509,3.425,0.509
				c1.052,0,2.029-0.101,2.931-0.307c0.896-0.206,1.732-0.528,2.502-0.963l-5.756-6.224h4.134V25.045L341.123,25.045z"/>
			<path fill="#FFFFFF" d="M360.798,6.896h3.394v17.552c0,2.854,0.61,4.947,1.82,6.281c1.213,1.335,3.116,2.003,5.713,2.003
				s4.5-0.667,5.713-2.003c1.217-1.335,1.822-3.425,1.822-6.281V6.896h3.413v17.552c0,3.816-0.912,6.668-2.73,8.562
				c-1.812,1.897-4.557,2.846-8.216,2.846c-3.647,0-6.383-0.949-8.199-2.846c-1.815-1.894-2.726-4.746-2.726-8.562V6.896H360.798z"
				/>
			<path fill="#FFFFFF" d="M392.098,35.102V6.896h14.875v3.063h-11.523v8.093h11.523v3.122h-11.523v10.81h11.523v3.119H392.098z"/>
		</g>
	</g>
</g>
</svg>
