<?xml version="1.0" encoding="utf-8"?>
<!-- Generator: Adobe Illustrator 16.0.0, SVG Export Plug-In . SVG Version: 6.00 Build 0)  -->
<!DOCTYPE svg PUBLIC "-//W3C//DTD SVG 1.1//EN" "http://www.w3.org/Graphics/SVG/1.1/DTD/svg11.dtd">
<svg version="1.1" id="Calque_1" xmlns="http://www.w3.org/2000/svg" xmlns:xlink="http://www.w3.org/1999/xlink" x="0px" y="0px"
	 width="30px" height="30px" viewBox="0 0 30 30" enable-background="new 0 0 30 30" xml:space="preserve">
<g id="_x32_3">
	<g>
		<path fill="#878787" d="M23.63,13.103c0-2.476-1.358-4.637-3.364-5.788V2.923c0-1.16-0.943-2.104-2.104-2.104h-2.525
			c-1.16,0-2.104,0.944-2.104,2.104v4.392c-2.008,1.151-3.366,3.313-3.366,5.788v2.868c0,0.018,0.004,0.035,0.005,0.053
			c0.002,0.014,0,0.026,0.003,0.039l2.244,13.469c0.045,0.271,0.279,0.47,0.554,0.47h7.854c0.274,0,0.509-0.198,0.553-0.47
			l2.245-13.469c0.002-0.013,0.001-0.025,0.002-0.039c0.002-0.018,0.006-0.035,0.006-0.053v-2.868H23.63z M14.654,2.923
			c0-0.541,0.441-0.981,0.983-0.981h2.524c0.54,0,0.979,0.44,0.979,0.981v0.141h-4.488L14.654,2.923L14.654,2.923z M14.654,4.186
			h4.489v2.619c-0.687-0.238-1.418-0.374-2.184-0.374h-0.123c-0.766,0-1.497,0.136-2.183,0.374L14.654,4.186L14.654,4.186z
			 M11.289,15.409v-2.306c0-3.06,2.489-5.55,5.548-5.55h0.123c3.06,0,5.549,2.49,5.549,5.55v2.306 M22.221,17.652H11.576
			l-0.187-1.121h11.018L22.221,17.652z"/>
	</g>
</g>
</svg>
