<?xml version="1.0" encoding="utf-8"?>
<!-- Generator: Adobe Illustrator 16.0.0, SVG Export Plug-In . SVG Version: 6.00 Build 0)  -->
<!DOCTYPE svg PUBLIC "-//W3C//DTD SVG 1.1//EN" "http://www.w3.org/Graphics/SVG/1.1/DTD/svg11.dtd">
<svg version="1.1" id="Calque_1" xmlns="http://www.w3.org/2000/svg" xmlns:xlink="http://www.w3.org/1999/xlink" x="0px" y="0px"
	 width="30px" height="30px" viewBox="0 0 30 30" enable-background="new 0 0 30 30" xml:space="preserve">
<g>
	<path fill="#878787" d="M21.471,9.095V2.341h-9.676v6.754c0,4.418,2.664,6.291,4.146,6.777V26.51
		c-1.126,0.065-1.958,0.29-1.958,0.555c0,0.024,0.008,0.047,0.021,0.068c-1.225,0.186-2.028,0.493-2.028,0.842
		c0,0.566,2.111,1.025,4.714,1.025s4.716-0.459,4.716-1.025c0-0.357-0.851-0.674-2.136-0.855c0.008-0.018,0.013-0.035,0.013-0.055
		c0-0.256-0.774-0.474-1.843-0.547V15.832C18.939,15.289,21.471,13.401,21.471,9.095z M12.716,9.095V3.262h7.833v5.833
		c0,4.801-3.428,5.99-3.916,5.99S12.716,13.896,12.716,9.095z"/>
	<path fill="#878787" d="M19.807,9.429V6.042c0,0-1.677,0.864-3.146,0c-1.467-0.863-3.201,0-3.201,0v3.386
		c0,3.849,2.736,4.663,3.173,4.677C17.068,14.091,19.807,13.277,19.807,9.429z"/>
</g>
</svg>
