<?xml version="1.0" encoding="utf-8"?>
<!-- Generator: Adobe Illustrator 16.0.0, SVG Export Plug-In . SVG Version: 6.00 Build 0)  -->
<!DOCTYPE svg PUBLIC "-//W3C//DTD SVG 1.1//EN" "http://www.w3.org/Graphics/SVG/1.1/DTD/svg11.dtd">
<svg version="1.1" id="Calque_1" xmlns="http://www.w3.org/2000/svg" xmlns:xlink="http://www.w3.org/1999/xlink" x="0px" y="0px"
	 width="30px" height="30px" viewBox="0 0 30 30" enable-background="new 0 0 30 30" xml:space="preserve">
<path fill="#878787" d="M26.224,5.291H5.36c-0.979,0-1.777,0.798-1.777,1.778v13.444c0,0.98,0.798,1.777,1.777,1.777h9.968v3.593
	h-3.187c-0.256,0-0.464,0.209-0.464,0.464c0,0.257,0.208,0.464,0.464,0.464h7.244c0.256,0,0.464-0.207,0.464-0.464
	c0-0.255-0.208-0.464-0.464-0.464h-3.13V22.29h9.968c0.979,0,1.777-0.797,1.777-1.777V7.069C28.001,6.088,27.203,5.291,26.224,5.291
	z"/>
</svg>
