<?xml version="1.0" encoding="utf-8"?>
<!-- Generator: Adobe Illustrator 16.0.0, SVG Export Plug-In . SVG Version: 6.00 Build 0)  -->
<!DOCTYPE svg PUBLIC "-//W3C//DTD SVG 1.1//EN" "http://www.w3.org/Graphics/SVG/1.1/DTD/svg11.dtd">
<svg version="1.1" id="Calque_1" xmlns="http://www.w3.org/2000/svg" xmlns:xlink="http://www.w3.org/1999/xlink" x="0px" y="0px"
	 width="30px" height="30px" viewBox="0 0 30 30" enable-background="new 0 0 30 30" xml:space="preserve">
<g>
	<path fill="#878787" d="M6.114,29.902c0.16,0.117,0.369,0.127,0.541,0.037l5.313-2.793l5.313,2.793
		c0.076,0.037,0.156,0.06,0.24,0.06c0.106,0,0.209-0.032,0.301-0.097c0.154-0.112,0.234-0.312,0.203-0.504l-1.018-5.918l4.303-4.19
		c0.14-0.134,0.188-0.337,0.129-0.522c-0.06-0.188-0.219-0.322-0.412-0.35l-5.939-0.861l-2.66-5.383
		c-0.171-0.348-0.744-0.348-0.915,0l-2.665,5.383l-5.94,0.861c-0.193,0.027-0.353,0.166-0.412,0.35
		c-0.059,0.187-0.011,0.389,0.128,0.522l4.303,4.19L5.91,29.398C5.873,29.598,5.953,29.79,6.114,29.902z"/>
	<path fill="#878787" d="M29.975,23.079c-0.059-0.188-0.219-0.321-0.412-0.349l-2.418-0.354l-1.08-2.193
		c-0.086-0.177-0.264-0.283-0.461-0.283s-0.375,0.111-0.461,0.283l-1.08,2.193l-2.42,0.354c-0.191,0.026-0.353,0.166-0.41,0.349
		c-0.061,0.188-0.012,0.392,0.127,0.524l1.75,1.707l-0.412,2.408c-0.031,0.191,0.049,0.385,0.203,0.502
		c0.156,0.112,0.369,0.129,0.541,0.038l2.162-1.141l2.162,1.141c0.074,0.037,0.154,0.06,0.24,0.06c0.105,0,0.209-0.032,0.301-0.098
		c0.154-0.111,0.234-0.311,0.202-0.502l-0.411-2.408l1.75-1.707C29.984,23.471,30.034,23.268,29.975,23.079z"/>
	<path fill="#878787" d="M19.594,9.733c-0.172-0.348-0.744-0.348-0.914,0l-0.781,1.584l-1.746,0.251
		c-0.191,0.026-0.354,0.166-0.411,0.348c-0.06,0.188-0.011,0.391,0.129,0.524l1.263,1.231l-0.3,1.739
		c-0.03,0.193,0.049,0.385,0.203,0.503c0.092,0.063,0.192,0.096,0.301,0.096c0.08,0,0.165-0.021,0.233-0.063l1.563-0.823
		l1.563,0.813c0.074,0.037,0.154,0.043,0.234,0.043c0.006,0,0.012,0,0.012,0c0.283,0,0.514-0.215,0.514-0.499
		c0-0.064-0.012-0.112-0.032-0.171l-0.284-1.637l1.264-1.231c0.14-0.134,0.188-0.337,0.129-0.524
		c-0.059-0.188-0.221-0.321-0.412-0.348l-1.744-0.251L19.594,9.733z"/>
	<path fill="#878787" d="M7.885,3.242c-0.235-0.482-1.022-0.482-1.263,0l-1.07,2.172L3.154,5.763C2.887,5.8,2.667,5.987,2.587,6.239
		c-0.08,0.257-0.016,0.535,0.177,0.722l1.734,1.691l-0.407,2.387c-0.043,0.262,0.064,0.53,0.278,0.685
		c0.123,0.091,0.268,0.134,0.412,0.134c0.112,0,0.225-0.032,0.326-0.085l2.146-1.134l2.146,1.118
		c0.102,0.054,0.214,0.059,0.327,0.059c0.005,0,0.01,0,0.016,0c0.391,0,0.701-0.294,0.701-0.685c0-0.091-0.016-0.155-0.048-0.235
		L10.01,8.643l1.734-1.691c0.193-0.188,0.262-0.466,0.177-0.723c-0.086-0.257-0.305-0.439-0.567-0.476L8.955,5.404L7.885,3.242z"/>
	<path fill="#878787" d="M28.605,15.272c-0.033-0.091-0.113-0.161-0.209-0.177l-0.81-0.118l-0.358-0.728
		c-0.084-0.177-0.373-0.177-0.459,0l-0.358,0.728l-0.81,0.118c-0.096,0.016-0.176,0.08-0.207,0.177
		c-0.033,0.091-0.006,0.192,0.063,0.262l0.583,0.565L25.9,16.902c-0.016,0.098,0.021,0.193,0.104,0.252
		c0.08,0.06,0.182,0.064,0.268,0.021l0.723-0.38l0.723,0.38c0.037,0.021,0.08,0.032,0.118,0.032c0.054,0,0.106-0.017,0.149-0.049
		c0.08-0.06,0.117-0.154,0.102-0.251l-0.139-0.803l0.582-0.567C28.609,15.47,28.639,15.368,28.605,15.272z"/>
	<path fill="#878787" d="M26.859,8.144c-0.047-0.086-0.145-0.128-0.239-0.124l-0.813,0.07l-0.514-0.631
		c-0.123-0.15-0.4-0.085-0.443,0.102l-0.188,0.792L23.9,8.647c-0.09,0.037-0.154,0.118-0.159,0.214
		c-0.011,0.096,0.036,0.193,0.122,0.241l0.695,0.423l0.049,0.813c0.006,0.096,0.063,0.182,0.154,0.219
		c0.092,0.038,0.192,0.021,0.268-0.043l0.615-0.53l0.787,0.209c0.043,0.011,0.08,0.011,0.123,0c0.055-0.011,0.103-0.038,0.135-0.08
		c0.063-0.075,0.08-0.177,0.043-0.268l-0.316-0.75l0.439-0.685C26.908,8.331,26.914,8.229,26.859,8.144z"/>
	<path fill="#878787" d="M19.706,3.478c-0.075-0.128-0.22-0.198-0.364-0.188l-1.23,0.102L17.33,2.434
		c-0.188-0.23-0.609-0.128-0.68,0.155l-0.283,1.204l-1.15,0.449c-0.14,0.054-0.236,0.182-0.246,0.327
		c-0.012,0.15,0.059,0.289,0.187,0.364l1.054,0.642l0.07,1.236c0.011,0.149,0.102,0.278,0.235,0.337
		c0.133,0.059,0.293,0.032,0.406-0.064l0.936-0.808l1.193,0.315c0.064,0.016,0.123,0.016,0.188,0.005
		c0.079-0.016,0.149-0.059,0.202-0.123c0.098-0.112,0.123-0.268,0.064-0.407l-0.48-1.14l0.668-1.038
		C19.781,3.767,19.781,3.606,19.706,3.478z"/>
	<path fill="#878787" d="M25.004,2.343c-0.038-0.064-0.111-0.102-0.188-0.097L24.18,2.3l-0.406-0.498
		c-0.096-0.118-0.315-0.07-0.354,0.08l-0.145,0.621l-0.594,0.236c-0.07,0.026-0.123,0.096-0.129,0.171
		c-0.006,0.075,0.031,0.15,0.096,0.188l0.547,0.332l0.037,0.642c0.004,0.075,0.054,0.145,0.123,0.171
		c0.068,0.032,0.148,0.016,0.209-0.032l0.485-0.417l0.621,0.16c0.032,0.011,0.063,0.011,0.097,0c0.043-0.01,0.08-0.032,0.106-0.064
		c0.049-0.059,0.063-0.139,0.032-0.209L24.66,3.093l0.348-0.541C25.046,2.493,25.046,2.407,25.004,2.343z"/>
</g>
</svg>
