<?xml version="1.0" encoding="utf-8"?>
<!-- Generator: Adobe Illustrator 16.0.0, SVG Export Plug-In . SVG Version: 6.00 Build 0)  -->
<!DOCTYPE svg PUBLIC "-//W3C//DTD SVG 1.1//EN" "http://www.w3.org/Graphics/SVG/1.1/DTD/svg11.dtd">
<svg version="1.1" id="Calque_1" xmlns="http://www.w3.org/2000/svg" xmlns:xlink="http://www.w3.org/1999/xlink" x="0px" y="0px"
	 width="30px" height="30px" viewBox="0 0 30 30" enable-background="new 0 0 30 30" xml:space="preserve">
<g>
	<path fill="#878787" d="M21.146,29.432h-9.794c-0.082,0-0.161-0.011-0.239-0.023C11.224,29.751,11.542,30,11.921,30h8.659
		c0.379,0,0.695-0.249,0.809-0.593C21.309,29.421,21.229,29.432,21.146,29.432z"/>
	<path fill="#878787" d="M10.5,9.27c0.238-0.181,0.531-0.292,0.852-0.292h9.794c0.321,0,0.615,0.111,0.854,0.292V3.013
		c0-0.47-0.382-0.852-0.854-0.852h-9.794c-0.47,0-0.852,0.382-0.852,0.852V9.27z M11.637,3.723c0-0.235,0.191-0.426,0.426-0.426
		h0.284c0.235,0,0.426,0.191,0.426,0.426v3.693c0,0.235-0.191,0.426-0.426,0.426h-0.284c-0.235,0-0.426-0.191-0.426-0.426V3.723z"/>
	<path fill="#878787" d="M22,12.104v-1.705c0-0.47-0.382-0.852-0.854-0.852h-9.794c-0.47,0-0.852,0.382-0.852,0.852v1.705v11.363
		v4.545c0,0.471,0.382,0.854,0.852,0.854h9.794c0.472,0,0.854-0.383,0.854-0.854v-4.545V12.104z M12.327,25.455h-0.244
		c-0.246,0-0.446-0.201-0.446-0.446V12.266c0-0.246,0.2-0.446,0.446-0.446h0.244c0.246,0,0.446,0.2,0.446,0.446v12.743
		C12.773,25.254,12.573,25.455,12.327,25.455z"/>
</g>
</svg>
