<?xml version="1.0" encoding="utf-8"?>
<!-- Generator: Adobe Illustrator 16.0.0, SVG Export Plug-In . SVG Version: 6.00 Build 0)  -->
<!DOCTYPE svg PUBLIC "-//W3C//DTD SVG 1.1//EN" "http://www.w3.org/Graphics/SVG/1.1/DTD/svg11.dtd">
<svg version="1.1" id="Calque_1" xmlns="http://www.w3.org/2000/svg" xmlns:xlink="http://www.w3.org/1999/xlink" x="0px" y="0px"
	 width="30px" height="30px" viewBox="0 0 30 30" enable-background="new 0 0 30 30" xml:space="preserve">
<g id="Layer_8">
	<path fill="#878787" d="M27.602,6.422h0.899V6.163h-0.915c-0.008-0.05-0.02-0.099-0.031-0.147l1.772-0.737L29.21,4.998
		l-1.774,0.737c-0.031-0.059-0.069-0.112-0.108-0.163l1.017-1.016L28.16,4.372l-1.016,1.014c-0.055-0.045-0.11-0.087-0.172-0.123
		l0.461-1.118l-0.281-0.117l-0.463,1.115c-0.066-0.019-0.135-0.031-0.203-0.04V4.279h-0.26v0.822
		c-0.076,0.006-0.15,0.018-0.226,0.039l-0.663-1.595l-0.281,0.117l0.661,1.595c-0.063,0.037-0.124,0.08-0.181,0.125l-0.895-0.894
		L24.46,4.672l0.894,0.892c-0.023,0.029-0.047,0.059-0.068,0.09l-1.102-0.455L24.066,5.48l1.084,0.448
		c-0.025,0.076-0.043,0.155-0.055,0.235h-0.822v0.259h0.811c0.005,0.09,0.018,0.18,0.042,0.271l-1.688,0.701l0.117,0.281
		l1.688-0.701c0.016,0.028,0.034,0.053,0.052,0.079l-9.422,9.421c-0.018-0.002-0.035-0.006-0.055-0.006
		c-2.294,0.045-2.513,0.264-2.645,0.395l-9.901,9.9c-0.405,0.404-0.405,1.063,0,1.467l1.467,1.467c0.404,0.404,1.063,0.402,1.466,0
		l9.901-9.901c0.146-0.146,0.365-0.364,0.238-2.833c-0.002-0.066-0.019-0.128-0.043-0.186l9.361-9.363
		c0.023,0.014,0.045,0.03,0.068,0.043l-0.48,1.164l0.282,0.116l0.481-1.166c0.067,0.019,0.139,0.029,0.209,0.036v0.898h0.26V7.604
		c0.063-0.008,0.129-0.019,0.193-0.037l0.773,1.867l0.281-0.116L26.96,7.45c0.06-0.033,0.115-0.071,0.167-0.113l1.094,1.092
		l0.182-0.182l-1.094-1.094c0.067-0.081,0.127-0.168,0.172-0.262l1.181,0.488l0.116-0.281L27.58,6.603
		C27.592,6.543,27.598,6.484,27.602,6.422z"/>
</g>
</svg>
