<?xml version="1.0" encoding="utf-8"?>
<!-- Generator: Adobe Illustrator 16.0.0, SVG Export Plug-In . SVG Version: 6.00 Build 0)  -->
<!DOCTYPE svg PUBLIC "-//W3C//DTD SVG 1.1//EN" "http://www.w3.org/Graphics/SVG/1.1/DTD/svg11.dtd">
<svg version="1.1" id="Calque_1" xmlns="http://www.w3.org/2000/svg" xmlns:xlink="http://www.w3.org/1999/xlink" x="0px" y="0px"
	 width="30px" height="30px" viewBox="0 0 30 30" enable-background="new 0 0 30 30" xml:space="preserve">
<g>
	<path fill="#878787" d="M4.005,18.409v9.696h2.18V29h1.617v-0.895h17.456V29h1.615v-0.895H29v-9.696H4.005z M10.644,26.3
		c-1.569,0-2.841-1.272-2.841-2.842s1.272-2.843,2.841-2.843c1.57,0,2.842,1.271,2.842,2.843C13.485,25.027,12.213,26.3,10.644,26.3
		z M18.391,25.77h-1.106v-4.623h1.106V25.77z M21.318,25.77h-1.105v-4.623h1.105V25.77z M24.15,25.77h-1.106v-4.623h1.106V25.77z
		 M25.789,22.211c-0.293,0-0.531-0.24-0.531-0.533c0-0.295,0.238-0.533,0.531-0.533s0.529,0.238,0.529,0.533
		S26.082,22.211,25.789,22.211z"/>
	<path fill="#878787" d="M6.6,15.932c0.512,0.637,1.278,1.051,2.145,1.051c1.537,0,2.788-1.278,2.788-2.854h-0.661
		c0,1.209-0.954,2.193-2.127,2.193c-1.174,0-2.128-0.983-2.128-2.193H5.955c0,0.413,0.089,0.801,0.244,1.156
		c-1.614-0.2-2.873-1.565-2.873-3.232c0-0.656,0.192-1.288,0.558-1.828l0.125-0.185L3.883,9.854
		c-0.365-0.54-0.557-1.172-0.557-1.828c0-1.804,1.469-3.273,3.273-3.273c0.71,0,1.388,0.228,1.962,0.659l0.154,0.116L8.893,5.45
		c0.416-0.182,0.856-0.275,1.31-0.275c1.119,0,2.15,0.566,2.756,1.514l0.188,0.292L13.43,6.78c0.557-0.397,1.212-0.607,1.894-0.607
		c1.805,0,3.271,1.468,3.271,3.273c0,0.101-0.007,0.201-0.016,0.299l-0.021,0.233l0.213,0.098c1.162,0.533,1.912,1.7,1.912,2.974
		c0,1.542-1.074,2.83-2.514,3.175l-0.014-0.037c-0.129,0.047-0.262,0.078-0.393,0.101c-0.054,0.006-0.106,0.013-0.16,0.017
		c-0.965,0.09-1.898-0.447-2.231-1.374c-0.399-1.104,0.203-2.336,1.342-2.746l-0.226-0.622c-1.478,0.534-2.261,2.146-1.739,3.593
		c0.407,1.129,1.487,1.829,2.646,1.829c0.006,0,0.01,0,0.015,0l0,0c0.026,0,0.053-0.008,0.079-0.008
		c0.146-0.004,0.291-0.018,0.436-0.045c1.926-0.254,3.42-1.888,3.42-3.879c0-1.455-0.813-2.792-2.091-3.472
		c0.002-0.044,0.004-0.088,0.004-0.132c0-2.169-1.765-3.934-3.934-3.934c-0.709,0-1.394,0.188-1.998,0.548
		c-0.744-0.974-1.888-1.546-3.123-1.546c-0.481,0-0.951,0.087-1.398,0.258C8.149,4.327,7.391,4.093,6.6,4.093
		c-2.169,0-3.934,1.764-3.934,3.934c0,0.714,0.191,1.406,0.553,2.012c-0.363,0.607-0.553,1.299-0.553,2.013
		c0,2.169,1.765,3.934,3.934,3.934V15.932z"/>
</g>
</svg>
