<?xml version="1.0" encoding="utf-8"?>
<!-- Generator: Adobe Illustrator 16.0.0, SVG Export Plug-In . SVG Version: 6.00 Build 0)  -->
<!DOCTYPE svg PUBLIC "-//W3C//DTD SVG 1.1//EN" "http://www.w3.org/Graphics/SVG/1.1/DTD/svg11.dtd">
<svg version="1.1" id="Calque_1" xmlns="http://www.w3.org/2000/svg" xmlns:xlink="http://www.w3.org/1999/xlink" x="0px" y="0px"
	 width="30px" height="30px" viewBox="0 0 30 30" enable-background="new 0 0 30 30" xml:space="preserve">
<path fill="#878787" d="M30,6.671l-0.396,0.215C29.559,6.91,24.961,9.35,16.003,9.35S2.439,6.911,2.394,6.886L1.999,6.672V26
	l0.374-0.162c0.058-0.023,5.834-2.475,13.631-2.475c7.799,0,13.564,2.449,13.622,2.475L30,26V6.671z M2.534,7.55
	C3.409,7.951,5.718,8.871,9.49,9.429v13.947c-3.508,0.584-6.042,1.474-6.956,1.821V7.55z M10.025,23.29V9.504
	c1.711,0.229,3.702,0.381,5.979,0.381c2.273,0,4.262-0.151,5.971-0.38v13.784c-1.785-0.273-3.8-0.461-5.971-0.461
	C13.831,22.828,11.812,23.018,10.025,23.29z M29.465,25.197c-0.914-0.35-3.445-1.239-6.956-1.822V9.43
	c3.772-0.558,6.081-1.478,6.956-1.88V25.197z"/>
</svg>
