<?xml version="1.0" encoding="utf-8"?>
<!-- Generator: Adobe Illustrator 16.0.0, SVG Export Plug-In . SVG Version: 6.00 Build 0)  -->
<!DOCTYPE svg PUBLIC "-//W3C//DTD SVG 1.1//EN" "http://www.w3.org/Graphics/SVG/1.1/DTD/svg11.dtd">
<svg version="1.1" id="Calque_1" xmlns="http://www.w3.org/2000/svg" xmlns:xlink="http://www.w3.org/1999/xlink" x="0px" y="0px"
	 width="30px" height="30px" viewBox="0 0 30 30" enable-background="new 0 0 30 30" xml:space="preserve">
<g>
	<polygon fill="#878787" points="14.781,20.033 5.789,20.033 1.224,27.001 14.001,27.001 	"/>
	<path fill="#878787" d="M20.46,14.705h-3.249l0.404,3.62h4.478c-0.004,0-0.008,0-0.012,0c-0.269-0.007-0.479-0.229-0.478-0.495
		c0-0.002,0-0.012,0.002-0.018C21.607,17.723,21.62,15.92,20.46,14.705z"/>
	<path fill="#878787" d="M12.218,14.705H9.279l-2.371,3.62h8.064l0.404-3.62h-2.073c-0.056,0.367-0.068,0.622-0.07,0.687
		c0,0.006-0.001,0.019-0.001,0.021c-0.008,0.265-0.225,0.472-0.487,0.472c-0.003,0-0.007,0-0.011,0
		c-0.268-0.006-0.48-0.227-0.477-0.494c0-0.002,0-0.014,0-0.021C12.258,15.333,12.261,15.081,12.218,14.705z"/>
	<path fill="#878787" d="M23.488,15.112c-0.104,0.144-0.198,0.297-0.287,0.46c-0.569,1.058-0.616,2.145-0.619,2.266
		c0,0.005-0.001,0.01-0.001,0.016h0.001c-0.01,0.264-0.227,0.473-0.488,0.473h3.5L23.488,15.112z"/>
	<polygon fill="#878787" points="17.807,20.033 18.586,27.001 31.277,27.001 26.712,20.033 	"/>
	<path fill="#878787" d="M18.869,9.258c-6.042,0-6.124-6.138-6.124-6.138c0,5.969-6.138,6.138-6.138,6.138
		c5.023,0.008,5.939,3.844,6.104,5.447c0.037,0.36,0.036,0.609,0.034,0.675c0.002-0.065,0.013-0.314,0.065-0.675
		c0.23-1.603,1.282-5.439,6.072-5.447C18.879,9.258,18.875,9.258,18.869,9.258z"/>
	<path fill="#878787" d="M26.859,13.06c-4.702,0-4.767-4.778-4.767-4.778c0,4.646-4.776,4.778-4.776,4.778
		c1.947,0.003,3.103,0.746,3.787,1.646c0.996,1.312,0.992,2.955,0.989,3.118c0.005-0.163,0.085-1.807,1.099-3.118
		c0.695-0.898,1.822-1.643,3.68-1.646C26.867,13.06,26.863,13.06,26.859,13.06z"/>
</g>
</svg>
