<?xml version="1.0" encoding="utf-8"?>
<!-- Generator: Adobe Illustrator 16.0.0, SVG Export Plug-In . SVG Version: 6.00 Build 0)  -->
<!DOCTYPE svg PUBLIC "-//W3C//DTD SVG 1.1//EN" "http://www.w3.org/Graphics/SVG/1.1/DTD/svg11.dtd">
<svg version="1.1" id="Calque_1" xmlns="http://www.w3.org/2000/svg" xmlns:xlink="http://www.w3.org/1999/xlink" x="0px" y="0px"
	 width="30px" height="30px" viewBox="0 0 30 30" enable-background="new 0 0 30 30" xml:space="preserve">
<g>
	<rect x="3.551" y="25.639" fill="#878787" width="2.361" height="2.361"/>
	<rect x="3.551" y="22.753" fill="#878787" width="2.361" height="2.36"/>
	<rect x="3.551" y="19.867" fill="#878787" width="2.361" height="2.361"/>
	<rect x="3.551" y="16.98" fill="#878787" width="2.361" height="2.361"/>
	<rect x="3.551" y="14.095" fill="#878787" width="2.361" height="2.361"/>
	<rect x="3.551" y="11.209" fill="#878787" width="2.361" height="2.361"/>
	<rect x="3.551" y="8.323" fill="#878787" width="2.361" height="2.361"/>
	<rect x="3.551" y="5.438" fill="#878787" width="2.361" height="2.361"/>
	<rect x="6.437" y="25.639" fill="#878787" width="2.361" height="2.361"/>
	<rect x="6.437" y="22.753" fill="#878787" width="2.361" height="2.36"/>
	<rect x="6.437" y="19.867" fill="#878787" width="2.361" height="2.361"/>
	<rect x="6.437" y="16.98" fill="#878787" width="2.361" height="2.361"/>
	<rect x="6.437" y="14.095" fill="#878787" width="2.361" height="2.361"/>
	<rect x="9.323" y="25.639" fill="#878787" width="2.361" height="2.361"/>
	<rect x="9.323" y="22.753" fill="#878787" width="2.361" height="2.36"/>
	<rect x="9.323" y="19.867" fill="#878787" width="2.361" height="2.361"/>
	<rect x="12.208" y="25.639" fill="#878787" width="2.362" height="2.361"/>
	<rect x="12.208" y="22.753" fill="#878787" width="2.362" height="2.36"/>
	<rect x="12.208" y="19.867" fill="#878787" width="2.362" height="2.361"/>
	<rect x="12.208" y="16.98" fill="#878787" width="2.362" height="2.361"/>
	<rect x="12.208" y="14.095" fill="#878787" width="2.362" height="2.361"/>
	<rect x="12.208" y="11.209" fill="#878787" width="2.362" height="2.361"/>
	<rect x="15.095" y="25.639" fill="#878787" width="2.36" height="2.361"/>
	<rect x="15.095" y="22.753" fill="#878787" width="2.36" height="2.36"/>
	<rect x="17.98" y="25.639" fill="#878787" width="2.361" height="2.361"/>
	<rect x="17.98" y="22.753" fill="#878787" width="2.361" height="2.36"/>
	<rect x="17.98" y="19.867" fill="#878787" width="2.361" height="2.361"/>
	<rect x="17.98" y="16.98" fill="#878787" width="2.361" height="2.361"/>
	<rect x="17.98" y="14.095" fill="#878787" width="2.361" height="2.361"/>
	<rect x="17.98" y="11.209" fill="#878787" width="2.361" height="2.361"/>
	<rect x="17.98" y="8.323" fill="#878787" width="2.361" height="2.361"/>
	<rect x="20.867" y="25.639" fill="#878787" width="2.361" height="2.361"/>
	<rect x="23.752" y="25.639" fill="#878787" width="2.361" height="2.361"/>
	<rect x="23.752" y="22.753" fill="#878787" width="2.361" height="2.36"/>
	<rect x="23.752" y="19.867" fill="#878787" width="2.361" height="2.361"/>
	<rect x="26.639" y="25.639" fill="#878787" width="2.361" height="2.361"/>
	<rect x="26.639" y="22.753" fill="#878787" width="2.361" height="2.36"/>
	<rect x="26.639" y="19.867" fill="#878787" width="2.361" height="2.361"/>
	<rect x="26.639" y="16.98" fill="#878787" width="2.361" height="2.361"/>
</g>
</svg>
