<?xml version="1.0" encoding="utf-8"?>
<!-- Generator: Adobe Illustrator 16.0.0, SVG Export Plug-In . SVG Version: 6.00 Build 0)  -->
<!DOCTYPE svg PUBLIC "-//W3C//DTD SVG 1.1//EN" "http://www.w3.org/Graphics/SVG/1.1/DTD/svg11.dtd">
<svg version="1.1" id="Calque_1" xmlns="http://www.w3.org/2000/svg" xmlns:xlink="http://www.w3.org/1999/xlink" x="0px" y="0px"
	 width="30px" height="30px" viewBox="0 0 30 30" enable-background="new 0 0 30 30" xml:space="preserve">
<g>
	<polygon fill="#878787" points="19.667,2 17.902,2 17.902,17.346 3.349,17.346 3.349,18.803 19.667,18.803 	"/>
	<path fill="#878787" d="M20.549,5.088v13.273h1.875v2.142c0,0.438-0.355,0.794-0.793,0.794h-2.002
		c0.023-0.068,0.035-0.105,0.035-0.105c0.169-0.613,0.27-1.262,0.27-1.947H3.349c0,7.359,5.663,9.757,5.663,9.757h4.963v-1.847
		l0.475-0.912h0.008c0.149-0.043,0.302-0.082,0.445-0.139c1.996-0.76,3.224-2.123,3.929-3.22h2.799c1.313,0,2.381-1.067,2.381-2.381
		v-2.142h1.834l1.321-13.273H20.549z"/>
	<rect x="20.549" y="3.323" fill="#878787" width="6.616" height="1.323"/>
</g>
</svg>
