<?xml version="1.0" encoding="utf-8"?>
<!-- Generator: Adobe Illustrator 16.0.0, SVG Export Plug-In . SVG Version: 6.00 Build 0)  -->
<!DOCTYPE svg PUBLIC "-//W3C//DTD SVG 1.1//EN" "http://www.w3.org/Graphics/SVG/1.1/DTD/svg11.dtd">
<svg version="1.1" id="Calque_1" xmlns="http://www.w3.org/2000/svg" xmlns:xlink="http://www.w3.org/1999/xlink" x="0px" y="0px"
	 width="50px" height="50px" viewBox="0 0 50 50" enable-background="new 0 0 50 50" xml:space="preserve">
<linearGradient id="SVGID_1_" gradientUnits="userSpaceOnUse" x1="297.3125" y1="-348.5132" x2="297.3125" y2="-392.3794" gradientTransform="matrix(1 0 0 -1 -272.5996 -344.9902)">
	<stop  offset="0" style="stop-color:#E3C04C"/>
	<stop  offset="1" style="stop-color:#CB9F00"/>
</linearGradient>
<path fill="url(#SVGID_1_)" d="M31.089,22.032c-0.055-0.456-0.228-0.87-0.491-1.215l1.82-11.297
	c0.066-0.421-0.202-0.821-0.618-0.917l-0.021-0.004c-0.413-0.096-0.834,0.146-0.955,0.554l-3.317,10.952
	c-0.815,0.411-1.385,1.248-1.385,2.224c0,1.377,1.121,2.499,2.499,2.499c0.256,0,0.499-0.05,0.73-0.122l6.928,3.601
	c0.381,0.196,0.852,0.072,1.087-0.287l0.01-0.016c0.235-0.361,0.156-0.84-0.179-1.105L31.089,22.032z M27.387,22.328
	c0-0.679,0.555-1.232,1.234-1.232c0.682,0,1.234,0.553,1.234,1.232c0,0.68-0.555,1.234-1.234,1.234S27.387,23.007,27.387,22.328z
	 M47.425,22.328c0,8.361-5.485,15.464-13.049,17.902v-2.679c6.144-2.331,10.521-8.274,10.521-15.224
	c0-8.976-7.301-16.277-16.275-16.277c-8.976,0-16.278,7.301-16.278,16.277c0,0.901,0.077,1.784,0.218,2.645h-2.556
	c-0.122-0.865-0.19-1.747-0.19-2.645c0-10.369,8.436-18.805,18.807-18.805C38.988,3.522,47.425,11.958,47.425,22.328z
	 M31.896,35.729l-5.787-5.726c-0.366-0.367-0.866-0.569-1.376-0.569h-2.919V28.34c0-0.814-0.665-1.472-1.48-1.472H3.472
	C2.657,26.868,2,27.525,2,28.34v9.86h30.48v-1.076C32.48,36.604,32.271,36.094,31.896,35.729z M29.377,35.917h-5.606
	c-0.127,0-0.227-0.103-0.227-0.228v-4.33c0-0.125,0.099-0.227,0.227-0.227h1.068c0.057,0,0.12,0.025,0.165,0.063l4.531,4.33
	C29.688,35.665,29.585,35.917,29.377,35.917z M32.482,39.016v3.26c0,0.813-0.662,1.473-1.476,1.473h-1.575
	c-0.285-1.953-1.97-3.457-4.002-3.457c-2.028,0-3.712,1.504-3.998,3.457h-7.988c-0.286-1.953-1.97-3.457-3.998-3.457
	c-2.029,0-3.714,1.504-3.999,3.457H3.473C2.66,43.747,2,43.089,2,42.275v-3.262h30.482V39.016z M25.433,41.275
	c-1.687,0-3.058,1.365-3.058,3.055c0,1.686,1.372,3.059,3.058,3.059c1.688,0,3.051-1.373,3.051-3.059
	C28.484,42.641,27.121,41.275,25.433,41.275z M25.433,45.857c-0.847,0-1.528-0.683-1.528-1.527c0-0.841,0.682-1.53,1.528-1.53
	c0.84,0,1.525,0.689,1.525,1.53C26.958,45.176,26.273,45.857,25.433,45.857z M9.445,41.275c-1.688,0-3.059,1.365-3.059,3.055
	c0,1.686,1.371,3.059,3.059,3.059s3.052-1.373,3.052-3.059C12.497,42.641,11.132,41.275,9.445,41.275z M9.445,45.857
	c-0.848,0-1.529-0.683-1.529-1.527c0-0.841,0.682-1.53,1.529-1.53c0.84,0,1.53,0.689,1.53,1.53
	C10.975,45.176,10.285,45.857,9.445,45.857z"/>
</svg>
