<?xml version="1.0" encoding="utf-8"?>
<!-- Generator: Adobe Illustrator 16.0.0, SVG Export Plug-In . SVG Version: 6.00 Build 0)  -->
<!DOCTYPE svg PUBLIC "-//W3C//DTD SVG 1.1//EN" "http://www.w3.org/Graphics/SVG/1.1/DTD/svg11.dtd">
<svg version="1.1" id="Calque_1" xmlns="http://www.w3.org/2000/svg" xmlns:xlink="http://www.w3.org/1999/xlink" x="0px" y="0px"
	 width="50px" height="50px" viewBox="0 0 50 50" enable-background="new 0 0 50 50" xml:space="preserve">
<linearGradient id="SVGID_1_" gradientUnits="userSpaceOnUse" x1="297.1074" y1="-349.8394" x2="297.1074" y2="-390.8521" gradientTransform="matrix(1 0 0 -1 -272.5996 -344.9902)">
	<stop  offset="0" style="stop-color:#E3C04C"/>
	<stop  offset="1" style="stop-color:#CB9F00"/>
</linearGradient>
<path fill="url(#SVGID_1_)" d="M27.574,4.849c-11.119,0-20.156,8.906-20.429,19.995H1l9.2,10.254l9.198-10.254h-7.142
	c0.27-8.258,7.022-14.869,15.318-14.869c8.469,0,15.332,6.886,15.332,15.379c0,8.494-6.863,15.38-15.332,15.38
	c-3.396,0-6.532-1.108-9.072-2.983l-3.516,3.763c3.471,2.723,7.84,4.348,12.588,4.348c11.289,0,20.441-9.18,20.441-20.506
	C48.016,14.029,38.863,4.849,27.574,4.849z M25.757,14.352v11.729l7.517,7.515l2.476-2.477L29.26,24.63V14.352H25.757z"/>
</svg>
