<?xml version="1.0" encoding="utf-8"?>
<!-- Generator: Adobe Illustrator 16.0.0, SVG Export Plug-In . SVG Version: 6.00 Build 0)  -->
<!DOCTYPE svg PUBLIC "-//W3C//DTD SVG 1.1//EN" "http://www.w3.org/Graphics/SVG/1.1/DTD/svg11.dtd">
<svg version="1.1" id="Calque_1" xmlns="http://www.w3.org/2000/svg" xmlns:xlink="http://www.w3.org/1999/xlink" x="0px" y="0px"
	 width="50px" height="50px" viewBox="0 0 50 50" enable-background="new 0 0 50 50" xml:space="preserve">
<linearGradient id="SVGID_1_" gradientUnits="userSpaceOnUse" x1="297.1602" y1="-357.1284" x2="297.1602" y2="-385.3296" gradientTransform="matrix(1 0 0 -1 -272.5996 -344.9902)">
	<stop  offset="0" style="stop-color:#E3C04C"/>
	<stop  offset="1" style="stop-color:#CB9F00"/>
</linearGradient>
<path fill="url(#SVGID_1_)" d="M47.121,17.776v22.563l-8.46-5.642v-11.28L47.121,17.776z M24.56,20.598
	c1.559,0,2.82-1.262,2.82-2.821v-2.819c0-1.56-1.262-2.82-2.82-2.82H10.459c-1.558,0-2.819,1.261-2.819,2.82v2.819
	c0,1.561,1.261,2.821,2.819,2.821H24.56z M2,20.598l2.82-2.821v-2.819L2,12.138V20.598z M35.841,20.598v16.919
	c0,1.561-1.264,2.821-2.821,2.821H13.28c-1.56,0-2.821-1.262-2.821-2.821V23.417H24.56c3.11,0,5.641-2.53,5.641-5.641h2.818
	C34.579,17.776,35.841,19.04,35.841,20.598z M33.02,36.107c0-0.779-0.629-1.41-1.41-1.41H20.33c-0.779,0-1.409,0.631-1.409,1.41
	s0.63,1.41,1.409,1.41h11.279C32.391,37.518,33.02,36.889,33.02,36.107z"/>
</svg>
