<?xml version="1.0" encoding="utf-8"?>
<!-- Generator: Adobe Illustrator 16.0.0, SVG Export Plug-In . SVG Version: 6.00 Build 0)  -->
<!DOCTYPE svg PUBLIC "-//W3C//DTD SVG 1.1//EN" "http://www.w3.org/Graphics/SVG/1.1/DTD/svg11.dtd">
<svg version="1.1" id="Calque_1" xmlns="http://www.w3.org/2000/svg" xmlns:xlink="http://www.w3.org/1999/xlink" x="0px" y="0px"
	 width="50px" height="50px" viewBox="0 0 50 50" enable-background="new 0 0 50 50" xml:space="preserve">
<g>
	
		<linearGradient id="SVGID_1_" gradientUnits="userSpaceOnUse" x1="287.6113" y1="-347.333" x2="287.6113" y2="-371.6196" gradientTransform="matrix(1 0 0 -1 -272.5996 -344.9902)">
		<stop  offset="0" style="stop-color:#E3C04C"/>
		<stop  offset="1" style="stop-color:#CB9F00"/>
	</linearGradient>
	<path fill="url(#SVGID_1_)" d="M16.227,25.823l8.502-5.368c2.427-1.535,3.156-4.756,1.621-7.184L20.982,4.77
		c-0.961-1.521-2.608-2.427-4.408-2.427c-0.982,0-1.942,0.277-2.777,0.804L5.295,8.516c-2.427,1.535-3.155,4.756-1.623,7.185
		l5.37,8.502c0.96,1.52,2.607,2.426,4.406,2.426C14.431,26.629,15.391,26.352,16.227,25.823z M11.604,22.585l-5.369-8.502
		c-0.642-1.016-0.337-2.365,0.679-3.006l8.501-5.369c0.351-0.221,0.751-0.337,1.16-0.337c0.755,0,1.445,0.38,1.846,1.016
		l5.368,8.502c0.643,1.015,0.338,2.363-0.678,3.006l-8.501,5.368C13.614,23.888,12.222,23.565,11.604,22.585z"/>
	
		<linearGradient id="SVGID_2_" gradientUnits="userSpaceOnUse" x1="296.7949" y1="-372.6294" x2="296.7949" y2="-393.9907" gradientTransform="matrix(1 0 0 -1 -272.5996 -344.9902)">
		<stop  offset="0" style="stop-color:#E3C04C"/>
		<stop  offset="1" style="stop-color:#CB9F00"/>
	</linearGradient>
	<path fill="url(#SVGID_2_)" d="M33.814,33.988c-0.146-0.566-0.604-0.996-1.178-1.109c-7.679-1.49-8.74-3.533-8.836-3.766
		c-0.011-0.424-0.2-0.825-0.524-1.107c-0.376-0.324-0.887-0.443-1.369-0.318l-5.142,1.326c-2.78,0.719-4.456,3.565-3.739,6.344
		l2.514,9.738C16.136,47.395,18.209,49,20.581,49c0.44,0,0.877-0.057,1.305-0.167l9.737-2.517c1.348-0.346,2.479-1.199,3.182-2.396
		c0.707-1.197,0.905-2.598,0.557-3.945L33.814,33.988z M32.195,42.383c-0.295,0.5-0.768,0.857-1.33,1.002L21.128,45.9
		c-1.158,0.298-2.359-0.426-2.655-1.565L15.959,34.6c-0.299-1.162,0.402-2.354,1.565-2.656l3.816-0.984
		c0.966,1.471,3.475,3.354,9.779,4.702l1.311,5.067C32.574,41.294,32.491,41.879,32.195,42.383z"/>
	
		<linearGradient id="SVGID_3_" gradientUnits="userSpaceOnUse" x1="308.4521" y1="-354.2856" x2="308.4521" y2="-377.7339" gradientTransform="matrix(1 0 0 -1 -272.5996 -344.9902)">
		<stop  offset="0" style="stop-color:#E3C04C"/>
		<stop  offset="1" style="stop-color:#CB9F00"/>
	</linearGradient>
	<path fill="url(#SVGID_3_)" d="M43.363,11.755l-10.317-2.33c-1.925-0.436-3.957,0.246-5.253,1.739l-0.738,0.85l2.381,3.771
		c0.697,1.106,0.365,2.572-0.736,3.27l-3.921,2.476l-0.517,2.29c-0.655,2.904,1.172,5.8,4.077,6.457l10.32,2.332
		c0.391,0.086,0.792,0.134,1.189,0.134c2.541,0,4.705-1.732,5.264-4.212l2.332-10.318C48.098,15.308,46.27,12.413,43.363,11.755z
		 M44.486,17.543l-2.33,10.32c-0.281,1.242-1.577,2.07-2.836,1.789l-10.316-2.329c-0.617-0.142-1.146-0.515-1.482-1.048
		c-0.338-0.534-0.445-1.169-0.309-1.789l0.241-1.066l2.858-1.806c2.517-1.589,3.271-4.932,1.682-7.447l-1.047-1.657
		c0.443-0.191,0.943-0.241,1.431-0.132l10.315,2.33C43.973,14.999,44.773,16.27,44.486,17.543z"/>
	
		<linearGradient id="SVGID_4_" gradientUnits="userSpaceOnUse" x1="288.1455" y1="-352.3008" x2="288.1455" y2="-355.5918" gradientTransform="matrix(1 0 0 -1 -272.5996 -344.9902)">
		<stop  offset="0" style="stop-color:#E3C04C"/>
		<stop  offset="1" style="stop-color:#CB9F00"/>
	</linearGradient>
	<path fill="url(#SVGID_4_)" d="M15.7,10.259c0.141-0.801,0.367-1.583,0.591-2.364c0.167-0.587-0.746-0.837-0.912-0.251
		c-0.223,0.781-0.45,1.563-0.59,2.364C14.683,10.604,15.594,10.859,15.7,10.259z"/>
	
		<linearGradient id="SVGID_5_" gradientUnits="userSpaceOnUse" x1="290.0361" y1="-354.1919" x2="290.0361" y2="-357.4829" gradientTransform="matrix(1 0 0 -1 -272.5996 -344.9902)">
		<stop  offset="0" style="stop-color:#E3C04C"/>
		<stop  offset="1" style="stop-color:#CB9F00"/>
	</linearGradient>
	<path fill="url(#SVGID_5_)" d="M17.591,12.151c0.141-0.802,0.367-1.583,0.59-2.365c0.168-0.587-0.745-0.836-0.912-0.251
		c-0.222,0.782-0.45,1.563-0.59,2.365C16.574,12.495,17.486,12.75,17.591,12.151z"/>
	
		<linearGradient id="SVGID_6_" gradientUnits="userSpaceOnUse" x1="293.9229" y1="-385.9814" x2="293.9229" y2="-388.6646" gradientTransform="matrix(1 0 0 -1 -272.5996 -344.9902)">
		<stop  offset="0" style="stop-color:#E3C04C"/>
		<stop  offset="1" style="stop-color:#CB9F00"/>
	</linearGradient>
	<path fill="url(#SVGID_6_)" d="M21.337,41.221c-0.351,0.602-0.617,1.241-0.875,1.887c-0.228,0.564,0.687,0.81,0.911,0.25
		c0.229-0.569,0.47-1.129,0.779-1.658S21.644,40.691,21.337,41.221z"/>
	
		<linearGradient id="SVGID_7_" gradientUnits="userSpaceOnUse" x1="296.1855" y1="-385.8652" x2="296.1855" y2="-388.8198" gradientTransform="matrix(1 0 0 -1 -272.5996 -344.9902)">
		<stop  offset="0" style="stop-color:#E3C04C"/>
		<stop  offset="1" style="stop-color:#CB9F00"/>
	</linearGradient>
	<path fill="url(#SVGID_7_)" d="M23.701,41.104c-0.385,0.653-0.724,1.33-1.064,2.008c-0.271,0.545,0.544,1.021,0.816,0.479
		c0.339-0.679,0.678-1.355,1.065-2.009C24.829,41.052,24.011,40.577,23.701,41.104z"/>
	
		<linearGradient id="SVGID_8_" gradientUnits="userSpaceOnUse" x1="312.6807" y1="-361.1885" x2="312.6807" y2="-363.6357" gradientTransform="matrix(1 0 0 -1 -272.5996 -344.9902)">
		<stop  offset="0" style="stop-color:#E3C04C"/>
		<stop  offset="1" style="stop-color:#CB9F00"/>
	</linearGradient>
	<path fill="url(#SVGID_8_)" d="M39.691,18.506c0.523-0.523,1.041-1.046,1.492-1.633c0.373-0.483-0.447-0.952-0.815-0.477
		c-0.397,0.519-0.882,0.979-1.347,1.44C38.592,18.27,39.264,18.937,39.691,18.506z"/>
	
		<linearGradient id="SVGID_9_" gradientUnits="userSpaceOnUse" x1="313.1953" y1="-362.4634" x2="313.1953" y2="-366.6836" gradientTransform="matrix(1 0 0 -1 -272.5996 -344.9902)">
		<stop  offset="0" style="stop-color:#E3C04C"/>
		<stop  offset="1" style="stop-color:#CB9F00"/>
	</linearGradient>
	<path fill="url(#SVGID_9_)" d="M41.743,17.601c-1.132,1.029-2.146,2.158-3.028,3.406c-0.354,0.499,0.467,0.971,0.817,0.479
		c0.838-1.183,1.81-2.241,2.881-3.214C42.865,17.859,42.191,17.192,41.743,17.601z"/>
</g>
</svg>
