<?xml version="1.0" encoding="utf-8"?>
<!-- Generator: Adobe Illustrator 16.0.0, SVG Export Plug-In . SVG Version: 6.00 Build 0)  -->
<!DOCTYPE svg PUBLIC "-//W3C//DTD SVG 1.1//EN" "http://www.w3.org/Graphics/SVG/1.1/DTD/svg11.dtd">
<svg version="1.1" id="Calque_1" xmlns="http://www.w3.org/2000/svg" xmlns:xlink="http://www.w3.org/1999/xlink" x="0px" y="0px"
	 width="50px" height="50px" viewBox="0 0 50 50" enable-background="new 0 0 50 50" xml:space="preserve">
<g>
	<linearGradient id="SVGID_1_" gradientUnits="userSpaceOnUse" x1="35.9531" y1="19.1543" x2="42.5117" y2="19.1543">
		<stop  offset="0" style="stop-color:#E3C04C"/>
		<stop  offset="1" style="stop-color:#CB9F00"/>
	</linearGradient>
	<circle fill="url(#SVGID_1_)" cx="39.232" cy="19.155" r="3.278"/>
	<linearGradient id="SVGID_2_" gradientUnits="userSpaceOnUse" x1="2.2905" y1="25" x2="50" y2="25">
		<stop  offset="0" style="stop-color:#E3C04C"/>
		<stop  offset="1" style="stop-color:#CB9F00"/>
	</linearGradient>
	<path fill="url(#SVGID_2_)" d="M48.043,21.922c-3.539,0.907-7.105,1.686-10.697,2.343c-0.014-0.223-0.051-0.452-0.115-0.688
		c-0.721-2.595-4.65-3.43-5.604-3.808c0.613-0.667,1.227-1.333,1.84-1.999c1.371-1.49-0.848-3.718-2.225-2.223
		c-1.123,1.223-2.248,2.445-3.371,3.667c-0.641,0.697-0.631,2.006,0.318,2.468c0.527,0.256,1.066,0.491,1.609,0.719
		c-3.595,1.072-5.286,1.211-5.366,1.217c-7.069,0.611-13.297,1.161-20.368,1.772c-2.504,0.216-2.294,4.114,0.232,3.897
		c4.198-0.362,8.397-0.728,12.596-1.089c-3.849,0.966-7.699,1.932-11.547,2.896c-2.457,0.616-1.414,4.404,1.044,3.789
		c4.938-1.238,23.96-5.527,27.565-6.871c5.021-0.78,9.998-1.795,14.924-3.059C50.844,24.448,50.01,21.418,48.043,21.922z"/>
	<g>
		<linearGradient id="SVGID_3_" gradientUnits="userSpaceOnUse" x1="2.9902" y1="20.3721" x2="26.8418" y2="20.3721">
			<stop  offset="0" style="stop-color:#E3C04C"/>
			<stop  offset="1" style="stop-color:#CB9F00"/>
		</linearGradient>
		<path fill="url(#SVGID_3_)" d="M26.842,22.02c-0.25-0.315-0.423-0.694-0.502-1.111c-0.033-0.175-0.036-0.353-0.036-0.53
			l-0.038-0.054L2.99,16.657l2.824,7.43l18.521-1.602C24.385,22.481,25.194,22.409,26.842,22.02z"/>
	</g>
</g>
</svg>
