<?xml version="1.0" encoding="utf-8"?>
<!-- Generator: Adobe Illustrator 16.0.0, SVG Export Plug-In . SVG Version: 6.00 Build 0)  -->
<!DOCTYPE svg PUBLIC "-//W3C//DTD SVG 1.1//EN" "http://www.w3.org/Graphics/SVG/1.1/DTD/svg11.dtd">
<svg version="1.1" id="Calque_1" xmlns="http://www.w3.org/2000/svg" xmlns:xlink="http://www.w3.org/1999/xlink" x="0px" y="0px"
	 width="50px" height="50px" viewBox="0 0 50 50" enable-background="new 0 0 50 50" xml:space="preserve">
<g>
	
		<linearGradient id="SVGID_1_" gradientUnits="userSpaceOnUse" x1="302.3418" y1="-347.0693" x2="302.3418" y2="-378.5513" gradientTransform="matrix(1 0 0 -1 -272.5996 -344.9902)">
		<stop  offset="0" style="stop-color:#E3C04C"/>
		<stop  offset="1" style="stop-color:#CB9F00"/>
	</linearGradient>
	<path fill="url(#SVGID_1_)" d="M38.232,2.242l-0.355-0.129c-0.063-0.023-0.129-0.034-0.193-0.034c-0.238,0-0.453,0.15-0.533,0.373
		l-9.621,26.381c-0.129-0.015-0.26-0.026-0.391-0.038c-0.132-0.01-0.263-0.016-0.396-0.016c-2.057-0.051-4.252,0.699-5.864,2.492
		l4.628,0.901l0.375,0.072l0.376,0.073l1.505,0.293l0.379,0.072l0.373,0.073l4.137,0.804c-0.01-0.166-0.022-0.33-0.045-0.484
		c-0.221-1.633-1.354-2.893-2.888-3.615c-0.114-0.054-0.229-0.105-0.347-0.154c-0.118-0.047-0.236-0.091-0.355-0.132L38.572,2.97
		C38.68,2.676,38.525,2.35,38.232,2.242z"/>
	
		<linearGradient id="SVGID_2_" gradientUnits="userSpaceOnUse" x1="294.2227" y1="-377.6128" x2="294.2227" y2="-392.6968" gradientTransform="matrix(1 0 0 -1 -272.5996 -344.9902)">
		<stop  offset="0" style="stop-color:#E3C04C"/>
		<stop  offset="1" style="stop-color:#CB9F00"/>
	</linearGradient>
	<path fill="url(#SVGID_2_)" d="M25.693,33.752l-5.81-1.13c-2.127,3.407-2.898,7.647-4.812,9.788
		c-0.713,0.799-2.143,2.768-4.414,3.152l12.375,1.516l3.388-5.049l-1.494,5.277l3.26,0.399c0,0,3.838-7.581,4.399-12.615
		l-4.935-0.958L25.693,33.752z"/>
</g>
</svg>
