<?xml version="1.0" encoding="utf-8"?>
<!-- Generator: Adobe Illustrator 16.0.0, SVG Export Plug-In . SVG Version: 6.00 Build 0)  -->
<!DOCTYPE svg PUBLIC "-//W3C//DTD SVG 1.1//EN" "http://www.w3.org/Graphics/SVG/1.1/DTD/svg11.dtd">
<svg version="1.1" id="Calque_1" xmlns="http://www.w3.org/2000/svg" xmlns:xlink="http://www.w3.org/1999/xlink" x="0px" y="0px"
	 width="50px" height="50px" viewBox="0 0 50 50" enable-background="new 0 0 50 50" xml:space="preserve">
<linearGradient id="SVGID_1_" gradientUnits="userSpaceOnUse" x1="299.002" y1="-349.2573" x2="299.002" y2="-392.4692" gradientTransform="matrix(1 0 0 -1 -272.5996 -344.9902)">
	<stop  offset="0" style="stop-color:#E3C04C"/>
	<stop  offset="1" style="stop-color:#CB9F00"/>
</linearGradient>
<path fill="url(#SVGID_1_)" d="M46.127,35.402c-0.396-1.778-1.402-2.901-2.29-3.895c-1.267-1.417-2.465-2.758-2.465-6.34V14.063
	l-0.004-0.103c-0.022-0.314,0.099-2.275-4.953-5.32c-1.354-0.816-2.446-1.191-3.167-1.564c0-1.552-1.258-2.809-2.811-2.809h-18.31
	c-1.551,0-2.809,1.257-2.809,2.809V42.84h-0.1c-1.552,0-2.809,1.258-2.809,2.809v1.83h29.746v-1.83c0-1.551-1.256-2.809-2.805-2.809
	h-0.104V24.605c0.299,0.017,0.569,0.056,0.726,0.117v11.444c-0.051,0.52-0.131,2.541,1.262,4.124
	c1.037,1.181,2.572,1.778,4.563,1.778c2.882,0,4.702-0.596,5.724-1.871C46.686,38.748,46.457,36.875,46.127,35.402z M13.791,12.463
	c0-1.176,0.953-2.129,2.13-2.129h10.728c1.177,0,2.127,0.953,2.127,2.129v3.194c0,1.176-0.95,2.13-2.127,2.13H15.921
	c-1.177,0-2.13-0.954-2.13-2.13V12.463L13.791,12.463z M43.348,38.454c-0.246,0.307-1.037,0.825-3.549,0.825
	c-1.145,0-1.973-0.274-2.459-0.816c-0.718-0.802-0.593-2.047-0.593-2.047l0.013-11.819c0-0.76-0.306-1.445-0.863-1.931
	c-0.748-0.649-1.813-0.824-2.646-0.851V10.201c0.559,0.278,1.207,0.594,1.967,0.955c2.883,1.373,3.327,2.846,3.369,2.996v11.014
	c0,4.648,1.76,6.616,3.174,8.2c0.791,0.88,1.411,1.573,1.649,2.646C43.686,37.257,43.666,38.059,43.348,38.454z"/>
</svg>
