<?xml version="1.0" encoding="utf-8"?>
<!-- Generator: Adobe Illustrator 16.0.0, SVG Export Plug-In . SVG Version: 6.00 Build 0)  -->
<!DOCTYPE svg PUBLIC "-//W3C//DTD SVG 1.1//EN" "http://www.w3.org/Graphics/SVG/1.1/DTD/svg11.dtd">
<svg version="1.1" id="Calque_1" xmlns="http://www.w3.org/2000/svg" xmlns:xlink="http://www.w3.org/1999/xlink" x="0px" y="0px"
	 width="50px" height="50px" viewBox="0 0 50 50" enable-background="new 0 0 50 50" xml:space="preserve">
<g>
	
		<linearGradient id="SVGID_1_" gradientUnits="userSpaceOnUse" x1="300.7734" y1="-348.7056" x2="300.7734" y2="-356.8325" gradientTransform="matrix(1 0 0 -1 -272.5996 -344.9902)">
		<stop  offset="0" style="stop-color:#E3C04C"/>
		<stop  offset="1" style="stop-color:#CB9F00"/>
	</linearGradient>
	<path fill="url(#SVGID_1_)" d="M27.721,11.815c2.203,0.258,4.195-1.345,4.447-3.574c0.248-2.23-1.334-4.245-3.54-4.499
		c-2.2-0.255-4.195,1.345-4.448,3.575C23.932,9.548,25.512,11.561,27.721,11.815z"/>
	
		<linearGradient id="SVGID_2_" gradientUnits="userSpaceOnUse" x1="296.3398" y1="-356.7246" x2="296.3398" y2="-368.4814" gradientTransform="matrix(1 0 0 -1 -272.5996 -344.9902)">
		<stop  offset="0" style="stop-color:#E3C04C"/>
		<stop  offset="1" style="stop-color:#CB9F00"/>
	</linearGradient>
	<path fill="url(#SVGID_2_)" d="M21.796,23.491l3.491-8.487l0.196,0.432c0.057,0.125,0.171,0.212,0.306,0.235
		c0.018,0.003,0.041,0.005,0.063,0.005c0.112,0,0.219-0.047,0.295-0.128l0.959-1.017c0.108-0.115,0.141-0.286,0.084-0.434
		c-0.058-0.151-0.201-0.251-0.356-0.259l-1.188-0.063l-0.63-1.768c-0.054-0.156-0.201-0.264-0.366-0.271
		c-0.161-0.015-0.315,0.087-0.384,0.238l-1.227,2.695c-0.067,0.149-0.043,0.325,0.067,0.449c0.078,0.087,0.191,0.135,0.301,0.135
		c0.048,0,0.09-0.007,0.131-0.021l1.158-0.626l-4.43,8.461L21.796,23.491z"/>
	
		<linearGradient id="SVGID_3_" gradientUnits="userSpaceOnUse" x1="295.0713" y1="-356.8203" x2="295.0713" y2="-394.3315" gradientTransform="matrix(1 0 0 -1 -272.5996 -344.9902)">
		<stop  offset="0" style="stop-color:#E3C04C"/>
		<stop  offset="1" style="stop-color:#CB9F00"/>
	</linearGradient>
	<path fill="url(#SVGID_3_)" d="M36.001,20.251c-1.674,0.125-3.344,0.25-5.017,0.376c-0.688-1.746-1.446-4.095-2.088-5.273
		c-0.521-0.949-1.092-0.792-1.451-0.163c-1.324,2.308-4.848,9.473-4.848,9.473l-3.681-0.997l4.669-11.641
		c-0.225-0.061-0.765-0.376-1.734-0.051L8.549,15.092c-0.98,0.23-1.59,1.219-1.363,2.209c0.226,0.992,1.207,1.609,2.186,1.379
		l8.757-2.051c-1.27,2.285-2.495,4.599-3.678,6.93c0,0-6.339,10.462-5.375,10.889c0.963,0.428,5.158-4.345,5.158-4.345v16.75
		c0,1.375,1.102,2.487,2.459,2.487c1.36,0,2.46-1.112,2.46-2.487c0,0-0.898-11.813,2.559-18.982s4.804-9.162,4.804-9.162
		s1.297,3.103,1.82,4.42c0.214,0.531,0.57,1.518,1.809,1.393c2.105-0.209,3.75-0.315,5.86-0.473
		C38.396,23.865,38.413,20.071,36.001,20.251z"/>
	
		<linearGradient id="SVGID_4_" gradientUnits="userSpaceOnUse" x1="311.0684" y1="-363.6221" x2="311.0684" y2="-364.6494" gradientTransform="matrix(1 0 0 -1 -272.5996 -344.9902)">
		<stop  offset="0" style="stop-color:#E3C04C"/>
		<stop  offset="1" style="stop-color:#CB9F00"/>
	</linearGradient>
	<path fill="url(#SVGID_4_)" d="M33.564,18.632c-0.283,0-0.515,0.23-0.515,0.513c0,0.284,0.229,0.514,0.515,0.514h9.809
		c0.283,0,0.514-0.23,0.514-0.514c0-0.283-0.229-0.513-0.514-0.513H33.564z"/>
	
		<linearGradient id="SVGID_5_" gradientUnits="userSpaceOnUse" x1="311.0684" y1="-357.6563" x2="311.0684" y2="-362.8403" gradientTransform="matrix(1 0 0 -1 -272.5996 -344.9902)">
		<stop  offset="0" style="stop-color:#E3C04C"/>
		<stop  offset="1" style="stop-color:#CB9F00"/>
	</linearGradient>
	<path fill="url(#SVGID_5_)" d="M37.014,17.85h2.908c0.253,0,0.462-0.197,0.471-0.447l0.211-4.243
		c0.008-0.128-0.039-0.255-0.127-0.348c-0.09-0.092-0.211-0.146-0.343-0.146h-3.331c-0.13,0-0.25,0.054-0.34,0.146
		c-0.09,0.093-0.138,0.22-0.13,0.348l0.21,4.243C36.557,17.653,36.76,17.85,37.014,17.85z M40.139,13.139l-0.041,0.803l-3.259-0.033
		l-0.041-0.771L40.139,13.139L40.139,13.139z"/>
</g>
</svg>
