<?xml version="1.0" encoding="utf-8"?>
<!-- Generator: Adobe Illustrator 16.0.0, SVG Export Plug-In . SVG Version: 6.00 Build 0)  -->
<!DOCTYPE svg PUBLIC "-//W3C//DTD SVG 1.1//EN" "http://www.w3.org/Graphics/SVG/1.1/DTD/svg11.dtd">
<svg version="1.1" id="Calque_1" xmlns="http://www.w3.org/2000/svg" xmlns:xlink="http://www.w3.org/1999/xlink" x="0px" y="0px"
	 width="50px" height="50px" viewBox="0 0 50 50" enable-background="new 0 0 50 50" xml:space="preserve">
<g>
	
		<linearGradient id="SVGID_1_" gradientUnits="userSpaceOnUse" x1="299.1084" y1="-356.374" x2="299.1084" y2="-387.9907" gradientTransform="matrix(1 0 0 -1 -272.5996 -344.9902)">
		<stop  offset="0" style="stop-color:#E3C04C"/>
		<stop  offset="1" style="stop-color:#CB9F00"/>
	</linearGradient>
	<polygon fill="url(#SVGID_1_)" points="44.833,15.766 42.663,20.145 39.094,35.645 9.332,40.207 10.674,36.186 9.418,36.378 
		8.164,36.57 6.017,43 40.951,37.645 47,11.384 46.887,11.613 	"/>
	
		<linearGradient id="SVGID_2_" gradientUnits="userSpaceOnUse" x1="296.3379" y1="-356.269" x2="296.3379" y2="-381.8599" gradientTransform="matrix(1 0 0 -1 -272.5996 -344.9902)">
		<stop  offset="0" style="stop-color:#E3C04C"/>
		<stop  offset="1" style="stop-color:#CB9F00"/>
	</linearGradient>
	<path fill="url(#SVGID_2_)" d="M9.687,35.577l1.256-0.194l25.254-3.873l7.197-14.539l2.138-4.318l0.657-1.326l0.023-0.048
		L13.08,19.481L1.264,36.869l7.169-1.102L9.687,35.577z M19.659,20.221c0.101,0.583-0.157,1.47-0.731,2.63
		c-1.208,2.445-3.162,3.163-4.905,3.372c-0.008,0-0.014,0-0.021,0c-0.43,0.047-0.816-0.047-1.097-0.283
		c-0.606-0.516-0.685-1.695,0.493-3.524c0.352-0.549,0.712-1.069,1.193-1.521c0.394-0.37,0.87-0.695,1.489-0.953
		c0.51-0.21,1.113-0.376,1.852-0.484c0.069-0.011,0.128-0.014,0.191-0.021C19.063,19.342,19.555,19.617,19.659,20.221z M9.813,28.23
		l1.203-0.197l1.26-0.206l1.26-0.208l17.544-2.888l-1.589,2.406l-16.709,2.741l-1.26,0.206l-1.26,0.207l-2.026,0.332L9.813,28.23z
		 M5.813,34.245L7.39,31.85l2.487-0.408l1.26-0.207l1.261-0.207l16.259-2.676l-1.589,2.404l-15.426,2.531l-1.26,0.207l-1.258,0.207
		L5.813,34.245z"/>
</g>
</svg>
