<?xml version="1.0" encoding="utf-8"?>
<!-- Generator: Adobe Illustrator 16.0.0, SVG Export Plug-In . SVG Version: 6.00 Build 0)  -->
<!DOCTYPE svg PUBLIC "-//W3C//DTD SVG 1.1//EN" "http://www.w3.org/Graphics/SVG/1.1/DTD/svg11.dtd">
<svg version="1.1" id="Calque_1" xmlns="http://www.w3.org/2000/svg" xmlns:xlink="http://www.w3.org/1999/xlink" x="0px" y="0px"
	 width="50px" height="50px" viewBox="0 0 50 50" enable-background="new 0 0 50 50" xml:space="preserve">
<g>
	<g>
		
			<linearGradient id="SVGID_1_" gradientUnits="userSpaceOnUse" x1="298.1855" y1="-371.5815" x2="298.1855" y2="-376.2915" gradientTransform="matrix(1 0 0 -1 -272.5996 -344.9902)">
			<stop  offset="0" style="stop-color:#E3C04C"/>
			<stop  offset="1" style="stop-color:#CB9F00"/>
		</linearGradient>
		<path fill="url(#SVGID_1_)" d="M25.586,26.591c-1.299,0-2.356,1.058-2.356,2.354c0,1.299,1.058,2.355,2.356,2.355
			s2.355-1.058,2.355-2.355C27.941,27.648,26.885,26.591,25.586,26.591z"/>
	</g>
	<g>
		
			<linearGradient id="SVGID_2_" gradientUnits="userSpaceOnUse" x1="298.1924" y1="-364.9551" x2="298.1924" y2="-388.4907" gradientTransform="matrix(1 0 0 -1 -272.5996 -344.9902)">
			<stop  offset="0" style="stop-color:#E3C04C"/>
			<stop  offset="1" style="stop-color:#CB9F00"/>
		</linearGradient>
		<path fill="url(#SVGID_2_)" d="M31.309,30.016c2.723-3.164,6.853-4.795,12.26-4.87c-0.036-1.805-0.338-3.544-0.869-5.181
			c-5.827,3.899-11.563,5.218-16.637,5.218c-8.958,0-15.858-4.086-17.591-5.214c-0.51,1.573-0.799,3.246-0.854,4.974
			c5.602,0.001,9.854,1.646,12.643,4.885c4.399,5.113,3.677,12.412,3.528,13.582c0.592,0.058,1.19,0.09,1.798,0.09
			c0.732,0,1.455-0.05,2.166-0.136C27.568,41.677,27.133,34.866,31.309,30.016z M41.537,22.38l0.299,0.693l-5.695,2.448l-0.3-0.69
			L41.537,22.38z M15.426,25.521l-5.695-2.448l0.298-0.693l5.694,2.451L15.426,25.521z M22.476,28.945
			c0-1.715,1.394-3.109,3.11-3.109c1.715,0,3.109,1.396,3.109,3.109c0,1.716-1.396,3.109-3.109,3.109
			C23.87,32.057,22.476,30.661,22.476,28.945z"/>
	</g>
	<g>
		
			<linearGradient id="SVGID_3_" gradientUnits="userSpaceOnUse" x1="298.1855" y1="-348.3711" x2="298.1855" y2="-391.9634" gradientTransform="matrix(1 0 0 -1 -272.5996 -344.9902)">
			<stop  offset="0" style="stop-color:#E3C04C"/>
			<stop  offset="1" style="stop-color:#CB9F00"/>
		</linearGradient>
		<path fill="url(#SVGID_3_)" d="M25.586,3.381c-12.018,0-21.796,9.778-21.796,21.795c0,12.02,9.778,21.797,21.796,21.797
			c12.018,0,21.796-9.779,21.796-21.797S37.604,3.381,25.586,3.381z M25.586,44.251c-10.336,0-18.746-8.407-18.746-18.744
			c0-10.336,8.41-18.745,18.746-18.745c10.335,0,18.743,8.409,18.743,18.745S35.921,44.251,25.586,44.251z"/>
	</g>
</g>
</svg>
