<?xml version="1.0" encoding="utf-8"?>
<!-- Generator: Adobe Illustrator 16.0.0, SVG Export Plug-In . SVG Version: 6.00 Build 0)  -->
<!DOCTYPE svg PUBLIC "-//W3C//DTD SVG 1.1//EN" "http://www.w3.org/Graphics/SVG/1.1/DTD/svg11.dtd">
<svg version="1.1" id="Calque_1" xmlns="http://www.w3.org/2000/svg" xmlns:xlink="http://www.w3.org/1999/xlink" x="0px" y="0px"
	 width="50px" height="50px" viewBox="0 0 50 50" enable-background="new 0 0 50 50" xml:space="preserve">
<g>
	
		<linearGradient id="SVGID_1_" gradientUnits="userSpaceOnUse" x1="296.8965" y1="-362.1694" x2="296.8965" y2="-375.2974" gradientTransform="matrix(1 0 0 -1 -272.5996 -344.9902)">
		<stop  offset="0" style="stop-color:#E3C04C"/>
		<stop  offset="1" style="stop-color:#CB9F00"/>
	</linearGradient>
	<path fill="url(#SVGID_1_)" d="M24.297,30.307c5.807,0,10.516-4.707,10.516-10.514c0-0.848-0.111-1.667-0.303-2.455
		c-0.08-0.053-0.154-0.106-0.24-0.159c-1.658,3.876-7.221,4.315-9.589,4.315c-0.418,0-0.714-0.014-0.831-0.022
		c-0.116,0.008-0.411,0.022-0.831,0.022c-2.167,0-7.007-0.365-9.087-3.392c-0.09,0.551-0.149,1.112-0.149,1.689
		C13.781,25.6,18.489,30.307,24.297,30.307z"/>
	
		<linearGradient id="SVGID_2_" gradientUnits="userSpaceOnUse" x1="286.8789" y1="-377.0889" x2="286.8789" y2="-394.9907" gradientTransform="matrix(1 0 0 -1 -272.5996 -344.9902)">
		<stop  offset="0" style="stop-color:#E3C04C"/>
		<stop  offset="1" style="stop-color:#CB9F00"/>
	</linearGradient>
	<path fill="url(#SVGID_2_)" d="M23.522,49.661l-2.936-5.878l-0.181-0.362l0.25-0.315l2.183-2.75l-2.134-2.135l-0.448-0.449
		l0.448-0.446l1.89-1.892l-4.819-3.32c0,0,0.529-0.354-6.431,2.379c-6.961,2.73-6.345,9.076-6.256,9.429
		C5.176,44.271,5.036,50,5.036,50L23.522,49.661z"/>
	
		<linearGradient id="SVGID_3_" gradientUnits="userSpaceOnUse" x1="307.1523" y1="-377.0894" x2="307.1523" y2="-394.9907" gradientTransform="matrix(1 0 0 -1 -272.5996 -344.9902)">
		<stop  offset="0" style="stop-color:#E3C04C"/>
		<stop  offset="1" style="stop-color:#CB9F00"/>
	</linearGradient>
	<path fill="url(#SVGID_3_)" d="M37.725,34.492c-6.961-2.731-6.433-2.379-6.433-2.379l-5.101,3.516l1.695,1.695l0.447,0.447
		l-0.447,0.449l-2.136,2.135l2.183,2.75l0.252,0.315l-0.182,0.361l-2.932,5.87L44.033,50c0,0-0.143-5.729-0.053-6.08
		C44.068,43.566,44.686,37.225,37.725,34.492z M38.576,44.361h-6.854V43.57h6.854V44.361z"/>
	
		<linearGradient id="SVGID_4_" gradientUnits="userSpaceOnUse" x1="296.6523" y1="-346.8823" x2="296.6523" y2="-358.9702" gradientTransform="matrix(1 0 0 -1 -272.5996 -344.9902)">
		<stop  offset="0" style="stop-color:#E3C04C"/>
		<stop  offset="1" style="stop-color:#CB9F00"/>
	</linearGradient>
	<path fill="url(#SVGID_4_)" d="M33.857,5.861c-1.762-0.179-4.811-0.299-7.08-2.301c-1.672-1.474-2.469-1.668-2.773-1.668
		c-0.11,0-0.155,0.025-0.155,0.025s-0.021-0.025-0.095-0.025c-0.204,0-0.813,0.195-2.484,1.668
		c-2.271,2.002-4.968,2.122-6.731,2.301c-1.763,0.18-1.703,0.896-2.147,2.899c-0.444,2.001-2.066,2.54-1.586,3.018
		c0.313,0.311,1.589,1.448,2.439,2.202c0.917-0.653,2.119-1.167,3.547-1.547c2.098-0.556,4.66-0.827,7.462-0.827
		c2.854,0,5.457,0.282,7.574,0.86c1.191,0.325,2.229,0.743,3.063,1.26c0.938-0.734,2.121-1.669,2.399-1.948
		c0.479-0.478-0.94-1.016-1.386-3.018C35.462,6.758,35.621,6.041,33.857,5.861z"/>
	
		<linearGradient id="SVGID_5_" gradientUnits="userSpaceOnUse" x1="296.6445" y1="-357.4805" x2="296.6445" y2="-361.186" gradientTransform="matrix(1 0 0 -1 -272.5996 -344.9902)">
		<stop  offset="0" style="stop-color:#E3C04C"/>
		<stop  offset="1" style="stop-color:#CB9F00"/>
	</linearGradient>
	<path fill="url(#SVGID_5_)" d="M33.668,15.041v-0.365c0,0,0.275-0.213,0.672-0.521c-0.492-0.292-1.061-0.538-1.697-0.742
		c-2.19-0.699-5.164-0.923-8.388-0.923c-3.173,0-6.101,0.219-8.281,0.893c-0.873,0.27-1.626,0.611-2.223,1.043
		c0.173,0.152,0.281,0.248,0.281,0.248v1.522c0.158-0.09,0.322-0.178,0.492-0.263c2.354-1.195,5.809-1.955,9.733-1.955
		c3.748,0,7.068,0.693,9.412,1.797L33.668,15.041L33.668,15.041z"/>
	
		<linearGradient id="SVGID_6_" gradientUnits="userSpaceOnUse" x1="296.5273" y1="-358.8555" x2="296.5273" y2="-364.6924" gradientTransform="matrix(1 0 0 -1 -272.5996 -344.9902)">
		<stop  offset="0" style="stop-color:#E3C04C"/>
		<stop  offset="1" style="stop-color:#CB9F00"/>
	</linearGradient>
	<path fill="url(#SVGID_6_)" d="M14.28,16.152c1.652,3.216,6.728,3.55,8.737,3.55c0.518,0,0.831-0.023,0.831-0.023
		s0.314,0.023,0.832,0.023c2.082,0,7.446-0.36,8.894-3.907c-2.232-1.127-5.611-1.93-9.32-1.93
		C20.165,13.865,16.473,14.841,14.28,16.152z"/>
</g>
</svg>
