<?xml version="1.0" encoding="utf-8"?>
<!-- Generator: Adobe Illustrator 16.0.0, SVG Export Plug-In . SVG Version: 6.00 Build 0)  -->
<!DOCTYPE svg PUBLIC "-//W3C//DTD SVG 1.1//EN" "http://www.w3.org/Graphics/SVG/1.1/DTD/svg11.dtd">
<svg version="1.1" id="Calque_1" xmlns="http://www.w3.org/2000/svg" xmlns:xlink="http://www.w3.org/1999/xlink" x="0px" y="0px"
	 width="50px" height="50px" viewBox="0 0 50 50" enable-background="new 0 0 50 50" xml:space="preserve">
<g>
	<linearGradient id="SVGID_1_" gradientUnits="userSpaceOnUse" x1="9.2202" y1="35.2969" x2="9.2202" y2="40.3574">
		<stop  offset="0" style="stop-color:#E3C04C"/>
		<stop  offset="1" style="stop-color:#CB9F00"/>
	</linearGradient>
	<path fill="url(#SVGID_1_)" d="M9.218,35.297c-1.397,0-2.533,1.135-2.533,2.529c0,1.396,1.135,2.531,2.533,2.531
		c1.398,0,2.537-1.135,2.537-2.531C11.753,36.432,10.615,35.297,9.218,35.297z M9.218,39.082c-0.691,0-1.255-0.564-1.255-1.256
		c0-0.689,0.564-1.251,1.255-1.251c0.693,0,1.258,0.562,1.258,1.251C10.476,38.518,9.912,39.082,9.218,39.082z"/>
	<linearGradient id="SVGID_2_" gradientUnits="userSpaceOnUse" x1="35.8613" y1="35.5137" x2="35.8613" y2="40.5723">
		<stop  offset="0" style="stop-color:#E3C04C"/>
		<stop  offset="1" style="stop-color:#CB9F00"/>
	</linearGradient>
	<path fill="url(#SVGID_2_)" d="M35.861,35.514c-1.397,0-2.533,1.131-2.533,2.528c0,1.396,1.136,2.53,2.533,2.53
		c1.396,0,2.533-1.135,2.533-2.53C38.396,36.645,37.258,35.514,35.861,35.514z M35.861,39.3c-0.693,0-1.256-0.565-1.256-1.258
		c0-0.688,0.563-1.251,1.256-1.251c0.691,0,1.255,0.563,1.255,1.251C37.116,38.734,36.553,39.3,35.861,39.3z"/>
</g>
<g>
	<linearGradient id="SVGID_3_" gradientUnits="userSpaceOnUse" x1="23.9189" y1="9.8569" x2="23.9189" y2="43.0005">
		<stop  offset="0" style="stop-color:#E3C04C"/>
		<stop  offset="1" style="stop-color:#CB9F00"/>
	</linearGradient>
	<path fill="url(#SVGID_3_)" d="M26.137,9.857h-3.053h-3.952l-0.007,9.74h-6c-2.858,0-5.408,3.275-7.658,6.165
		c-0.704,0.9-1.367,1.756-1.969,2.406L3.434,28.25c-3.1,4.717-1.85,9.674-1.794,9.882l0.124,0.478H4.33
		c0.377,2.361,2.423,4.176,4.889,4.176c2.467,0,4.514-1.813,4.89-4.176h4.999H19.9h11.038C31.221,41.076,33.316,43,35.859,43
		c2.541,0,4.642-1.924,4.924-4.393h4.313v-5.351h1.398v-2.84V25.13V9.857H26.137z M9.218,41.507c-1.864,0-3.392-1.399-3.63-3.2
		v-0.338c0-2.06,1.677-3.732,3.737-3.732c0.754,0,1.452,0.229,2.041,0.611c0.926,0.67,1.534,1.75,1.534,2.979
		C12.899,39.855,11.247,41.507,9.218,41.507z M18.603,27.311H6.11c2.03-2.799,5.176-6.39,6.817-6.39h5.676V27.311z M39.536,38.104
		c-0.035,2-1.668,3.617-3.675,3.617c-2.03,0-3.68-1.65-3.68-3.679s1.647-3.683,3.68-3.683c2.007,0,3.64,1.619,3.675,3.621V38.104z
		 M40.603,22.897c-0.064,0.113-0.169,0.194-0.294,0.228l-3.117,0.835l1.086,0.627l1.493-0.4c0.249-0.066,0.525,0.09,0.595,0.344
		c0.033,0.126,0.016,0.258-0.05,0.371c-0.065,0.112-0.17,0.191-0.295,0.224l-0.555,0.148l0.724,0.418
		c0.233,0.137,0.313,0.435,0.178,0.664c-0.127,0.223-0.436,0.309-0.662,0.178l-0.724-0.418l0.148,0.554
		c0.034,0.124,0.018,0.255-0.048,0.368s-0.17,0.194-0.296,0.228c-0.043,0.014-0.09,0.016-0.126,0.016
		c-0.219,0-0.411-0.148-0.468-0.359l-0.399-1.493L36.706,24.8l0.836,3.113c0.069,0.26-0.085,0.527-0.345,0.597
		c-0.045,0.014-0.089,0.016-0.126,0.016c-0.219,0-0.412-0.148-0.469-0.359l-1.086-4.052l-0.706-0.409l-1.633-0.306l-0.551,1.566
		v0.818l2.966,2.968c0.091,0.089,0.143,0.21,0.144,0.34c0,0.131-0.051,0.254-0.144,0.347c-0.191,0.186-0.503,0.18-0.685,0.002
		l-2.281-2.284v1.253l1.092,1.095c0.188,0.188,0.188,0.496,0.002,0.686c-0.192,0.188-0.514,0.179-0.69,0l-0.405-0.405v0.835
		c0,0.267-0.219,0.484-0.486,0.484c-0.267,0-0.484-0.218-0.484-0.484v-0.835l-0.407,0.406c-0.182,0.183-0.499,0.184-0.685,0.002
		c-0.19-0.192-0.189-0.5-0.001-0.688l1.093-1.093v-1.254l-2.28,2.281c-0.182,0.184-0.503,0.186-0.687,0
		c-0.188-0.189-0.188-0.496-0.001-0.686l2.968-2.969v-0.816l-0.553-1.569l-1.632,0.306l-0.709,0.411l-1.085,4.05
		c-0.063,0.254-0.355,0.416-0.601,0.342c-0.115-0.03-0.22-0.108-0.285-0.221c-0.066-0.112-0.085-0.244-0.052-0.37l0.835-3.116
		l-1.084,0.626l-0.399,1.494c-0.067,0.255-0.341,0.418-0.598,0.342c-0.122-0.031-0.227-0.111-0.292-0.225
		c-0.064-0.111-0.082-0.241-0.049-0.366l0.149-0.557l-0.724,0.418c-0.221,0.127-0.534,0.046-0.663-0.177
		c-0.131-0.233-0.051-0.529,0.175-0.663l0.727-0.42l-0.557-0.148c-0.257-0.069-0.411-0.334-0.342-0.593
		c0.067-0.254,0.34-0.415,0.593-0.345l1.494,0.4l1.086-0.627l-3.116-0.836c-0.124-0.032-0.229-0.111-0.293-0.223
		c-0.066-0.112-0.083-0.244-0.049-0.37c0.064-0.25,0.336-0.413,0.592-0.344l4.055,1.086l0.709-0.409l1.081-1.26l-1.081-1.262
		l-0.709-0.409l-4.054,1.086c-0.047,0.013-0.093,0.016-0.124,0.016c-0.219,0-0.412-0.148-0.469-0.36
		c-0.034-0.124-0.017-0.254,0.047-0.367c0.065-0.113,0.17-0.194,0.297-0.228l3.115-0.834l-1.085-0.626l-1.495,0.401
		c-0.282,0.071-0.526-0.093-0.593-0.343c-0.034-0.125-0.017-0.255,0.047-0.368s0.169-0.193,0.294-0.227l0.557-0.149l-0.724-0.418
		c-0.231-0.133-0.312-0.43-0.179-0.662c0.131-0.225,0.441-0.305,0.664-0.178l0.723,0.417l-0.149-0.554
		c-0.067-0.26,0.086-0.526,0.343-0.595c0.279-0.07,0.53,0.093,0.596,0.345l0.399,1.492l1.087,0.627l-0.836-3.114
		c-0.069-0.258,0.085-0.525,0.343-0.595c0.271-0.07,0.525,0.091,0.596,0.341l1.084,4.055l0.709,0.408l1.632,0.305l0.552-1.565
		v-0.819l-2.966-2.966c-0.188-0.189-0.188-0.497-0.001-0.686c0.183-0.185,0.505-0.185,0.688-0.001l2.279,2.281v-1.253l-1.092-1.093
		c-0.092-0.092-0.143-0.213-0.143-0.343s0.051-0.251,0.143-0.343c0.18-0.183,0.5-0.183,0.686,0l0.406,0.408v-0.835
		c0-0.268,0.219-0.485,0.487-0.485c0.267,0,0.484,0.218,0.484,0.485v0.835l0.407-0.408c0.182-0.183,0.504-0.183,0.686,0
		c0.188,0.189,0.188,0.497,0.001,0.686l-1.094,1.094v1.253l2.28-2.281c0.178-0.182,0.504-0.183,0.686,0
		c0.189,0.19,0.189,0.498,0,0.687l-2.966,2.966v0.819l0.551,1.568l1.633-0.305l0.71-0.41l1.083-4.052
		c0.068-0.252,0.34-0.411,0.595-0.344c0.258,0.069,0.412,0.335,0.345,0.593l-0.835,3.116l1.086-0.626l0.398-1.493
		c0.068-0.252,0.339-0.41,0.593-0.344c0.128,0.034,0.233,0.114,0.298,0.227c0.065,0.113,0.082,0.244,0.048,0.369l-0.148,0.553
		l0.723-0.417c0.225-0.132,0.534-0.045,0.664,0.177c0.132,0.231,0.053,0.528-0.176,0.662l-0.727,0.419l0.557,0.149
		c0.255,0.067,0.411,0.333,0.346,0.591c-0.072,0.262-0.37,0.415-0.604,0.344l-1.487-0.398l-1.085,0.626l3.116,0.834
		c0.257,0.07,0.41,0.336,0.342,0.594c-0.057,0.212-0.25,0.36-0.47,0.36c-0.031,0-0.079-0.003-0.129-0.018l-4.049-1.084l-0.708,0.408
		l-1.081,1.261l1.081,1.26l0.708,0.409l4.054-1.085c0.26-0.068,0.527,0.092,0.593,0.345C40.685,22.654,40.667,22.785,40.603,22.897z
		"/>
	<linearGradient id="SVGID_4_" gradientUnits="userSpaceOnUse" x1="32.1406" y1="19.7871" x2="32.1406" y2="23.4204">
		<stop  offset="0" style="stop-color:#E3C04C"/>
		<stop  offset="1" style="stop-color:#CB9F00"/>
	</linearGradient>
	<polygon fill="url(#SVGID_4_)" points="32.142,23.42 32.538,22.291 33.715,22.511 32.937,21.603 33.715,20.695 32.539,20.916 
		32.141,19.787 31.741,20.916 30.566,20.695 31.347,21.603 30.568,22.511 31.744,22.291 	"/>
</g>
</svg>
