<?xml version="1.0" encoding="utf-8"?>
<!-- Generator: Adobe Illustrator 16.0.0, SVG Export Plug-In . SVG Version: 6.00 Build 0)  -->
<!DOCTYPE svg PUBLIC "-//W3C//DTD SVG 1.1//EN" "http://www.w3.org/Graphics/SVG/1.1/DTD/svg11.dtd">
<svg version="1.1" id="Calque_1" xmlns="http://www.w3.org/2000/svg" xmlns:xlink="http://www.w3.org/1999/xlink" x="0px" y="0px"
	 width="50px" height="50px" viewBox="0 0 50 50" enable-background="new 0 0 50 50" xml:space="preserve">
<linearGradient id="SVGID_1_" gradientUnits="userSpaceOnUse" x1="294.502" y1="-346.3213" x2="294.502" y2="-392.98" gradientTransform="matrix(1 0 0 -1 -272.5996 -344.9902)">
	<stop  offset="0" style="stop-color:#E3C04C"/>
	<stop  offset="1" style="stop-color:#CB9F00"/>
</linearGradient>
<path fill="url(#SVGID_1_)" d="M20.941,10.9c-0.4-2.275-0.845-4.437-1.308-6.162c-0.614-2.279-1.889-3.051-2.851-3.297
	c-3.539-0.895-8.335,3.95-8.869,4.507l1.543,1.483c1.424-1.483,4.956-4.38,6.794-3.918c0.223,0.057,0.898,0.229,1.316,1.784
	c0.42,1.559,0.823,3.517,1.196,5.603H16.84l2.243,36.458h1.176v0.632h12.244v-0.632h1.177L35.893,10.9H20.941z M18.739,20.172
	l-0.49-7.948h0.746c0.462,2.73,0.865,5.571,1.182,7.948H18.739z M20.105,27.557c-0.267-0.537-0.046-1.187,0.49-1.451l3.158-1.569
	c0.534-0.268,1.187-0.046,1.453,0.489l1.569,3.161c0.266,0.537,0.045,1.186-0.49,1.451l-3.159,1.57
	c-0.533,0.264-1.185,0.046-1.451-0.493L20.105,27.557z M26.889,27.33l-1.3-2.619c-0.162-0.325-0.45-0.554-0.774-0.682l0.136-1.699
	c0.049-0.628,0.596-1.092,1.219-1.045l0.012,0.001c0.004,0,0.008-0.001,0.012-0.001l3.684,0.291c0.626,0.05,1.091,0.596,1.043,1.223
	l-0.29,3.686c-0.049,0.625-0.597,1.09-1.22,1.041l-0.016-0.002c-0.002,0-0.006,0.002-0.006,0.002L26.889,27.33z M27.909,34.977
	c0.002,0.6-0.483,1.086-1.081,1.086l-1.314,0.008l0,0l-2.219,0.007c-0.598,0.003-1.087-0.481-1.089-1.082l-0.011-3.222
	c0.134,0.041,0.273,0.063,0.421,0.063c0.225,0,0.44-0.051,0.645-0.15l2.661-1.319l0.889-0.003c0.601,0,1.088,0.48,1.088,1.08
	L27.909,34.977z M28.123,42.984l-2.911,2.002c-0.492,0.339-1.169,0.214-1.507-0.278l-2.004-2.911
	c-0.34-0.495-0.215-1.169,0.277-1.511l2.913-1.999c0.01-0.008,0.023-0.008,0.033-0.016l0.002,0.611c0,0.924,0.756,1.676,1.682,1.676
	l1.16-0.004l0.635,0.922C28.743,41.971,28.619,42.646,28.123,42.984z M30.145,39.949l-2.783,0.013l0,0l-0.748,0.002
	c0,0-0.002,0-0.006,0c-0.082,0-0.155-0.032-0.233-0.047c-0.062-0.015-0.129-0.015-0.185-0.038c-0.061-0.023-0.104-0.068-0.158-0.104
	c-0.063-0.041-0.135-0.074-0.188-0.129c-0.031-0.028-0.048-0.07-0.072-0.104c-0.061-0.077-0.123-0.147-0.162-0.237
	c-0.055-0.13-0.084-0.271-0.084-0.421l-0.004-0.768l0,0l-0.006-1.45l1.315-0.006c0.448,0,0.87-0.178,1.187-0.492
	c0.315-0.32,0.49-0.741,0.489-1.189l-0.002-0.722l1.622-0.004c0.6-0.003,1.086,0.479,1.087,1.08l0.011,3.535
	C31.229,39.463,30.744,39.949,30.145,39.949z M22.34,20.172c-0.307-2.346-0.705-5.182-1.169-7.948h13.317l-0.481,7.948H22.34z"/>
</svg>
