<?xml version="1.0" encoding="utf-8"?>
<!-- Generator: Adobe Illustrator 16.0.0, SVG Export Plug-In . SVG Version: 6.00 Build 0)  -->
<!DOCTYPE svg PUBLIC "-//W3C//DTD SVG 1.1//EN" "http://www.w3.org/Graphics/SVG/1.1/DTD/svg11.dtd">
<svg version="1.1" id="Calque_1" xmlns="http://www.w3.org/2000/svg" xmlns:xlink="http://www.w3.org/1999/xlink" x="0px" y="0px"
	 width="50px" height="50px" viewBox="0 0 50 50" enable-background="new 0 0 50 50" xml:space="preserve">
<g>
	<linearGradient id="SVGID_1_" gradientUnits="userSpaceOnUse" x1="3.7344" y1="27.5859" x2="47.0928" y2="27.5859">
		<stop  offset="0" style="stop-color:#E3C04C"/>
		<stop  offset="1" style="stop-color:#CB9F00"/>
	</linearGradient>
	<path fill="url(#SVGID_1_)" d="M45.504,24.843c-4.182-3.399-11.211-8.342-20.063-8.507c-0.008,0-0.018,0-0.026,0s-0.018,0-0.026,0
		c-8.843,0.169-15.883,5.108-20.06,8.507c-0.201,0.164-1.568,1.21-1.593,2.552c-0.016,0.944,0.424,1.643,1.059,2.225
		c3.413,3.304,10.859,9.171,20.597,9.214v0.003c0.009,0,0.018,0,0.027,0c0.007,0,0.016,0,0.028,0v-0.003
		c9.753-0.043,17.182-5.91,20.592-9.214c0.634-0.582,1.071-1.28,1.055-2.225C47.067,26.054,45.703,25.007,45.504,24.843z
		 M25.417,36.295c-4.786-0.031-8.656-3.92-8.656-8.712c0-4.793,3.87-8.68,8.656-8.709c4.796,0.029,8.654,3.918,8.654,8.709
		C34.071,32.375,30.216,36.264,25.417,36.295z"/>
	<linearGradient id="SVGID_2_" gradientUnits="userSpaceOnUse" x1="22.0811" y1="27.583" x2="28.7529" y2="27.583">
		<stop  offset="0" style="stop-color:#E3C04C"/>
		<stop  offset="1" style="stop-color:#CB9F00"/>
	</linearGradient>
	<path fill="url(#SVGID_2_)" d="M25.446,24.198c-0.011-0.002-0.02-0.002-0.028-0.002c-0.01,0-0.018,0-0.027,0v0.002
		c-1.831,0.045-3.309,1.546-3.309,3.385c0,1.842,1.477,3.343,3.309,3.384v0.003c0.009,0,0.018-0.003,0.027-0.003
		c0.007,0,0.016,0.003,0.028,0.003v-0.003c1.849-0.041,3.307-1.545,3.307-3.384C28.747,25.74,27.289,24.243,25.446,24.198z"/>
</g>
</svg>
