<?xml version="1.0" encoding="utf-8"?>
<!-- Generator: Adobe Illustrator 16.0.0, SVG Export Plug-In . SVG Version: 6.00 Build 0)  -->
<!DOCTYPE svg PUBLIC "-//W3C//DTD SVG 1.1//EN" "http://www.w3.org/Graphics/SVG/1.1/DTD/svg11.dtd">
<svg version="1.1" id="Calque_1" xmlns="http://www.w3.org/2000/svg" xmlns:xlink="http://www.w3.org/1999/xlink" x="0px" y="0px"
	 width="50px" height="50px" viewBox="0 0 50 50" enable-background="new 0 0 50 50" xml:space="preserve">
<g>
	
		<linearGradient id="SVGID_1_" gradientUnits="userSpaceOnUse" x1="295.0215" y1="-349.2661" x2="295.0215" y2="-387.0063" gradientTransform="matrix(1 0 0 -1 -272.5996 -344.9902)">
		<stop  offset="0" style="stop-color:#E3C04C"/>
		<stop  offset="1" style="stop-color:#CB9F00"/>
	</linearGradient>
	<path fill="url(#SVGID_1_)" d="M22.487,4.276c-10.422,0-18.871,8.449-18.871,18.87c0,10.422,8.449,18.87,18.871,18.87
		c0.159,0,0.316-0.007,0.475-0.011l-1.356-1.537c-0.048-0.077-1.143-1.888,1.273-3.893c1.715-1.423,4.172-0.155,5.497,0.737v-8.998
		c-1.438,1.637-3.541,2.674-5.89,2.674c-4.333,0-7.844-3.512-7.844-7.843c0-4.331,3.512-7.843,7.844-7.843
		c4.064,0,7.407,3.092,7.802,7.054c0.303-0.108,0.623-0.178,0.961-0.178c0.663,0,1.265,0.234,1.752,0.612v-1.04
		c0-1.585,1.289-2.874,2.873-2.874c1.497,0,2.715,1.152,2.849,2.615c0.49-0.39,1.104-0.633,1.777-0.633
		c0.252,0,0.492,0.043,0.727,0.104C40.145,11.57,32.169,4.276,22.487,4.276z M22.487,12.733c-5.743,0-10.415,4.671-10.415,10.413
		c0,0.414-0.335,0.75-0.749,0.75c-0.413,0-0.749-0.336-0.749-0.75c0-6.567,5.343-11.91,11.912-11.91
		c0.413,0,0.748,0.335,0.748,0.749C23.235,12.397,22.9,12.733,22.487,12.733z M22.487,8.45c-8.104,0-14.697,6.593-14.697,14.695
		c0,0.415-0.335,0.75-0.749,0.75s-0.749-0.335-0.749-0.75c0-8.928,7.265-16.192,16.194-16.192c0.413,0,0.748,0.335,0.748,0.749
		C23.235,8.114,22.9,8.45,22.487,8.45z"/>
	
		<linearGradient id="SVGID_2_" gradientUnits="userSpaceOnUse" x1="295.0859" y1="-365.5332" x2="295.0859" y2="-370.7407" gradientTransform="matrix(1 0 0 -1 -272.5996 -344.9902)">
		<stop  offset="0" style="stop-color:#E3C04C"/>
		<stop  offset="1" style="stop-color:#CB9F00"/>
	</linearGradient>
	<path fill="url(#SVGID_2_)" d="M19.883,23.146c0,1.436,1.168,2.604,2.604,2.604c1.434,0,2.603-1.168,2.603-2.604
		c0-1.435-1.168-2.603-2.603-2.603C21.052,20.543,19.883,21.711,19.883,23.146z"/>
	
		<linearGradient id="SVGID_3_" gradientUnits="userSpaceOnUse" x1="307.2559" y1="-364.9902" x2="307.2559" y2="-392.3618" gradientTransform="matrix(1 0 0 -1 -272.5996 -344.9902)">
		<stop  offset="0" style="stop-color:#E3C04C"/>
		<stop  offset="1" style="stop-color:#CB9F00"/>
	</linearGradient>
	<path fill="url(#SVGID_3_)" d="M42.253,27.695v-3.963c0-0.664-0.374-1.235-0.92-1.532c-0.248-0.136-0.528-0.22-0.831-0.22
		c-0.966,0-1.752,0.785-1.752,1.751v8.697h-0.561h-0.563v-8.696V21.75c0-0.966-0.784-1.75-1.75-1.75
		c-0.967,0-1.752,0.785-1.752,1.75v3.304v7.375l0,0h-1.123v-7.376c0-0.966-0.786-1.752-1.751-1.752c-0.348,0-0.67,0.106-0.941,0.281
		c-0.484,0.311-0.811,0.853-0.811,1.472v1.59v13.014l-0.928-0.799c-0.034-0.028-3.328-2.784-4.975-1.42
		c-1.515,1.256-1.141,2.228-1.055,2.402l1.836,2.079l4.812,5.45h17.688V27.695c0-0.965-0.785-1.75-1.752-1.75
		c-0.965,0-1.75,0.785-1.75,1.75v4.732H42.25l0,0v-4.732H42.253z"/>
</g>
</svg>
