<?xml version="1.0" encoding="utf-8"?>
<!-- Generator: Adobe Illustrator 16.0.0, SVG Export Plug-In . SVG Version: 6.00 Build 0)  -->
<!DOCTYPE svg PUBLIC "-//W3C//DTD SVG 1.1//EN" "http://www.w3.org/Graphics/SVG/1.1/DTD/svg11.dtd">
<svg version="1.1" id="Calque_1" xmlns="http://www.w3.org/2000/svg" xmlns:xlink="http://www.w3.org/1999/xlink" x="0px" y="0px"
	 width="50px" height="50px" viewBox="0 0 50 50" enable-background="new 0 0 50 50" xml:space="preserve">
<g>
	<linearGradient id="SVGID_1_" gradientUnits="userSpaceOnUse" x1="7.4463" y1="29.3555" x2="12.6362" y2="29.3555">
		<stop  offset="0" style="stop-color:#E3C04C"/>
		<stop  offset="1" style="stop-color:#CB9F00"/>
	</linearGradient>
	<path fill="url(#SVGID_1_)" d="M8.784,17.718c-0.892,0.892-1.338,1.96-1.338,3.203V37.79c0,1.243,0.446,2.312,1.338,3.203
		c0.893,0.893,1.96,1.338,3.204,1.338h0.648V16.38h-0.648C10.744,16.38,9.676,16.826,8.784,17.718z"/>
	<linearGradient id="SVGID_2_" gradientUnits="userSpaceOnUse" x1="14.5835" y1="26.7607" x2="36.6416" y2="26.7607">
		<stop  offset="0" style="stop-color:#E3C04C"/>
		<stop  offset="1" style="stop-color:#CB9F00"/>
	</linearGradient>
	<path fill="url(#SVGID_2_)" d="M33.397,13.136c0-0.541-0.189-1-0.567-1.378c-0.378-0.379-0.838-0.568-1.378-0.568H19.773
		c-0.541,0-1,0.189-1.378,0.568c-0.379,0.377-0.568,0.837-0.568,1.378v3.244h-3.244v25.951h22.058V16.38h-3.244V13.136z
		 M20.422,13.785h10.381v2.595H20.422V13.785z M33.397,31.303c0,0.188-0.061,0.345-0.183,0.465c-0.12,0.122-0.276,0.184-0.466,0.184
		h-4.541v4.541c0,0.189-0.062,0.345-0.184,0.467c-0.12,0.121-0.275,0.182-0.466,0.182h-3.892c-0.19,0-0.345-0.061-0.467-0.182
		c-0.122-0.122-0.183-0.277-0.183-0.467v-4.541h-4.541c-0.19,0-0.346-0.062-0.467-0.184c-0.122-0.12-0.183-0.276-0.183-0.465v-3.894
		c0-0.188,0.061-0.345,0.183-0.467c0.121-0.121,0.277-0.182,0.466-0.182h4.542v-4.542c0-0.189,0.061-0.344,0.183-0.466
		c0.122-0.121,0.277-0.183,0.467-0.183h3.892c0.189,0,0.345,0.062,0.466,0.183c0.122,0.122,0.184,0.277,0.184,0.466v4.542h4.541
		c0.189,0,0.346,0.061,0.466,0.182c0.121,0.122,0.183,0.278,0.183,0.467V31.303L33.397,31.303z"/>
	<linearGradient id="SVGID_3_" gradientUnits="userSpaceOnUse" x1="38.5879" y1="29.3555" x2="43.7783" y2="29.3555">
		<stop  offset="0" style="stop-color:#E3C04C"/>
		<stop  offset="1" style="stop-color:#CB9F00"/>
	</linearGradient>
	<path fill="url(#SVGID_3_)" d="M42.44,17.718c-0.892-0.892-1.96-1.338-3.204-1.338h-0.648v25.951h0.648
		c1.244,0,2.313-0.445,3.204-1.338c0.892-0.892,1.338-1.96,1.338-3.203V20.921C43.778,19.678,43.332,18.61,42.44,17.718z"/>
</g>
</svg>
